<svg width="16" height="15" viewBox="0 0 16 15" fill="none" xmlns="http://www.w3.org/2000/svg">
<g clip-path="url(#clip0_14681_2560)">
<path opacity="0.815686" d="M7.33594 1.01562L7.4343 1.02968L7.33594 1.04373V1.01562Z" fill="white" fill-opacity="0.6" stroke="white" stroke-opacity="0.6"/>
<path opacity="0.815686" d="M8.90625 1.01562L9.00461 1.02968L8.90625 1.04373V1.01562Z" fill="white" fill-opacity="0.6" stroke="white" stroke-opacity="0.6"/>
<path opacity="0.815686" d="M7.14062 1.04688L7.21088 1.06093L7.14062 1.07498V1.04688Z" fill="white" fill-opacity="0.6" stroke="white" stroke-opacity="0.6"/>
<path opacity="0.815686" d="M9.13281 1.04688L9.20307 1.06093L9.13281 1.07498V1.04688Z" fill="white" fill-opacity="0.6" stroke="white" stroke-opacity="0.6"/>
<path opacity="0.815686" d="M6.94531 1.07031L7.01557 1.08436L6.94531 1.09842V1.07031Z" fill="white" fill-opacity="0.6" stroke="white" stroke-opacity="0.6"/>
<path opacity="0.815686" d="M9.30469 1.07031L9.37495 1.08436L9.30469 1.09842V1.07031Z" fill="white" fill-opacity="0.6" stroke="white" stroke-opacity="0.6"/>
<path opacity="0.815686" d="M4.94998 1.77344L4.92188 1.82964" stroke="white" stroke-opacity="0.6"/>
<path opacity="0.815686" d="M11.4609 1.82812L11.489 1.88433" stroke="white" stroke-opacity="0.6"/>
<path opacity="0.815686" d="M4.75467 1.88281L4.72656 1.93902" stroke="white" stroke-opacity="0.6"/>
<path opacity="0.815686" d="M11.6562 1.94531L11.6844 2.00152" stroke="white" stroke-opacity="0.6"/>
<path opacity="0.815686" d="M11.7422 2L11.7703 2.05621" stroke="white" stroke-opacity="0.6"/>
<path opacity="0.815686" d="M4.53592 2.02344L4.50781 2.07964" stroke="white" stroke-opacity="0.6"/>
<path opacity="0.815686" d="M4.44998 2.07812L4.42188 2.13433" stroke="white" stroke-opacity="0.6"/>
<path opacity="0.815686" d="M11.9141 2.10938L11.9422 2.16558" stroke="white" stroke-opacity="0.6"/>
<path opacity="0.815686" d="M4.36404 2.14062L4.33594 2.19683" stroke="white" stroke-opacity="0.6"/>
<path opacity="0.815686" d="M11.9922 2.16406L12.0203 2.22027" stroke="white" stroke-opacity="0.6"/>
<path opacity="0.815686" d="M4.2781 2.19531L4.25 2.25152" stroke="white" stroke-opacity="0.6"/>
<path opacity="0.815686" d="M12.0781 2.21875L12.1062 2.27496" stroke="white" stroke-opacity="0.6"/>
<path opacity="0.815686" d="M4.16873 2.28125L4.14062 2.33746" stroke="white" stroke-opacity="0.6"/>
<path opacity="0.815686" d="M12.1875 2.30469L12.2156 2.36089" stroke="white" stroke-opacity="0.6"/>
<path opacity="0.815686" d="M4.05621 2.35938L4 2.44369" stroke="white" stroke-opacity="0.6"/>
<path opacity="0.815686" d="M12.3047 2.39062L12.3609 2.47494" stroke="white" stroke-opacity="0.6"/>
<path opacity="0.815686" d="M3.96875 2.47656L5.17494 3.7108" stroke="white" stroke-opacity="0.6"/>
<path opacity="0.815686" d="M12.4453 2.5L12.5296 2.61241" stroke="white" stroke-opacity="0.6"/>
<path opacity="0.815686" d="M12.6406 2.67188L12.8655 2.92481" stroke="white" stroke-opacity="0.6"/>
<path opacity="0.815686" d="M13.0078 3.03906L13.2045 3.26389" stroke="white" stroke-opacity="0.6"/>
<path opacity="0.815686" d="M7.4203 3.28906L7.43435 3.44363H7.40625L7.4203 3.28906Z" fill="white" fill-opacity="0.6" stroke="white" stroke-opacity="0.6"/>
<path opacity="0.815686" d="M13.2812 3.34375L13.3656 3.45616" stroke="white" stroke-opacity="0.6"/>
<path opacity="0.815686" d="M7.28125 3.45312L7.35151 3.46718L7.28125 3.48123V3.45312Z" fill="white" fill-opacity="0.6" stroke="white" stroke-opacity="0.6"/>
<path opacity="0.815686" d="M9.02344 3.45312L9.0937 3.46718L9.02344 3.48123V3.45312Z" fill="white" fill-opacity="0.6" stroke="white" stroke-opacity="0.6"/>
<path opacity="0.815686" d="M2.9031 3.51562L2.875 3.57183" stroke="white" stroke-opacity="0.6"/>
<path opacity="0.815686" d="M13.4219 3.51562L13.4781 3.59994" stroke="white" stroke-opacity="0.6"/>
<path opacity="0.815686" d="M2.82183 3.625L2.76562 3.70931" stroke="white" stroke-opacity="0.6"/>
<path opacity="0.815686" d="M13.5391 3.65625L13.5672 3.71246" stroke="white" stroke-opacity="0.6"/>
<path opacity="0.815686" d="M2.73589 3.73438L2.67969 3.81869" stroke="white" stroke-opacity="0.6"/>
<path opacity="0.815686" d="M5.23438 3.73438L5.26248 3.79058" stroke="white" stroke-opacity="0.6"/>
<path opacity="0.815686" d="M13.625 3.76562L13.6531 3.82183" stroke="white" stroke-opacity="0.6"/>
<path opacity="0.815686" d="M5.32031 3.82031L5.37652 3.90462" stroke="white" stroke-opacity="0.6"/>
<path opacity="0.815686" d="M2.6531 3.85156L2.625 3.90777" stroke="white" stroke-opacity="0.6"/>
<path opacity="0.815686" d="M13.6797 3.85156L13.7078 3.90777" stroke="white" stroke-opacity="0.6"/>
<path opacity="0.815686" d="M6.02029 3.92969L5.99219 3.98589" stroke="white" stroke-opacity="0.6"/>
<path opacity="0.815686" d="M10.3125 3.92969L10.3406 3.98589" stroke="white" stroke-opacity="0.6"/>
<path opacity="0.815686" d="M13.7344 3.92969L13.7625 3.98589" stroke="white" stroke-opacity="0.6"/>
<path opacity="0.815686" d="M5.87967 4.01562L5.85156 4.07183" stroke="white" stroke-opacity="0.6"/>
<path opacity="0.815686" d="M10.4531 4.01562L10.4812 4.07183" stroke="white" stroke-opacity="0.6"/>
<path opacity="0.815686" d="M5.79373 4.07031L5.76562 4.12652" stroke="white" stroke-opacity="0.6"/>
<path opacity="0.815686" d="M13.8438 4.10156L13.8719 4.15777" stroke="white" stroke-opacity="0.6"/>
<path opacity="0.815686" d="M10.6172 4.13281L10.6453 4.18902" stroke="white" stroke-opacity="0.6"/>
<path opacity="0.815686" d="M2.42654 4.1875L2.39844 4.24371" stroke="white" stroke-opacity="0.6"/>
<path opacity="0.815686" d="M10.7031 4.1875L10.7312 4.24371" stroke="white" stroke-opacity="0.6"/>
<path opacity="0.815686" d="M13.8984 4.1875L13.9265 4.24371" stroke="white" stroke-opacity="0.6"/>
<path opacity="0.815686" d="M10.8125 4.27344L10.8687 4.35775" stroke="white" stroke-opacity="0.6"/>
<path opacity="0.815686" d="M2.34842 4.32812L2.32031 4.38433" stroke="white" stroke-opacity="0.6"/>
<path opacity="0.815686" d="M10.9531 4.38281L11.0655 4.52333" stroke="white" stroke-opacity="0.6"/>
<path opacity="0.815686" d="M14.0156 4.38281L14.0437 4.43902" stroke="white" stroke-opacity="0.6"/>
<path opacity="0.815686" d="M2.20779 4.57812L2.17969 4.63433" stroke="white" stroke-opacity="0.6"/>
<path opacity="0.815686" d="M2.08903 4.77344L2.10308 4.81559L2.06093 4.88585L2.04688 4.8437L2.08903 4.77344Z" fill="white" fill-opacity="0.6" stroke="white" stroke-opacity="0.6"/>
<path opacity="0.815686" d="M11.375 4.80469L11.4874 4.94521" stroke="white" stroke-opacity="0.6"/>
<path opacity="0.815686" d="M11.5469 5L11.6031 5.08431" stroke="white" stroke-opacity="0.6"/>
<path opacity="0.815686" d="M11.6328 5.10938L11.689 5.19369" stroke="white" stroke-opacity="0.6"/>
<path opacity="0.815686" d="M4.61404 5.22656L4.58594 5.28277" stroke="white" stroke-opacity="0.6"/>
<path opacity="0.815686" d="M11.7109 5.22656L11.739 5.28277" stroke="white" stroke-opacity="0.6"/>
<path opacity="0.815686" d="M4.55935 5.30469L4.53125 5.36089" stroke="white" stroke-opacity="0.6"/>
<path opacity="0.815686" d="M11.7734 5.30469L11.8015 5.36089" stroke="white" stroke-opacity="0.6"/>
<path opacity="0.815686" d="M4.50467 5.39062L4.47656 5.44683" stroke="white" stroke-opacity="0.6"/>
<path opacity="0.815686" d="M11.8281 5.39062L11.8562 5.44683" stroke="white" stroke-opacity="0.6"/>
<path opacity="0.815686" d="M4.41873 5.53125L4.39062 5.58746" stroke="white" stroke-opacity="0.6"/>
<path opacity="0.815686" d="M11.9141 5.53125L11.9422 5.58746" stroke="white" stroke-opacity="0.6"/>
<path opacity="0.815686" d="M1.61561 6.09375L1.62967 6.16401H1.60156L1.61561 6.09375Z" fill="white" fill-opacity="0.6" stroke="white" stroke-opacity="0.6"/>
<path opacity="0.815686" d="M1.56093 6.34375L1.57498 6.41401H1.54688L1.56093 6.34375Z" fill="white" fill-opacity="0.6" stroke="white" stroke-opacity="0.6"/>
<path opacity="0.815686" d="M1.52968 6.48438L1.54373 6.55463H1.51562L1.52968 6.48438Z" fill="white" fill-opacity="0.6" stroke="white" stroke-opacity="0.6"/>
<path opacity="0.815686" d="M14.8031 6.51562L14.8172 6.58588H14.7891L14.8031 6.51562Z" fill="white" fill-opacity="0.6" stroke="white" stroke-opacity="0.6"/>
<path opacity="0.815686" d="M1.50624 6.67969L1.52029 6.74995H1.49219L1.50624 6.67969Z" fill="white" fill-opacity="0.6" stroke="white" stroke-opacity="0.6"/>
<path opacity="0.815686" d="M14.8266 6.67969L14.8406 6.74995H14.8125L14.8266 6.67969Z" fill="white" fill-opacity="0.6" stroke="white" stroke-opacity="0.6"/>
<path opacity="0.815686" d="M12.4125 6.82031L12.4265 6.89057H12.3984L12.4125 6.82031Z" fill="white" fill-opacity="0.6" stroke="white" stroke-opacity="0.6"/>
<path opacity="0.815686" d="M1.47499 6.875L1.48904 6.97336H1.46094L1.47499 6.875Z" fill="white" fill-opacity="0.6" stroke="white" stroke-opacity="0.6"/>
<path opacity="0.815686" d="M14.8578 6.875L14.8719 6.97336H14.8438L14.8578 6.875Z" fill="white" fill-opacity="0.6" stroke="white" stroke-opacity="0.6"/>
<path opacity="0.815686" d="M12.4453 6.96094L12.5999 6.97499L12.4453 6.98904V6.96094Z" fill="white" fill-opacity="0.6" stroke="white" stroke-opacity="0.6"/>
<path opacity="0.815686" d="M3.66406 8.45312L3.90294 8.46718L3.66406 8.48123V8.45312Z" fill="white" fill-opacity="0.6" stroke="white" stroke-opacity="0.6"/>
<path opacity="0.815686" d="M14.8578 8.45312L14.8719 8.55149H14.8438L14.8578 8.45312Z" fill="white" fill-opacity="0.6" stroke="white" stroke-opacity="0.6"/>
<path opacity="0.815686" d="M3.91249 8.53125L3.92654 8.60151H3.89844L3.91249 8.53125Z" fill="white" fill-opacity="0.6" stroke="white" stroke-opacity="0.6"/>
<path opacity="0.815686" d="M12.4125 8.5625L12.4265 8.63276H12.3984L12.4125 8.5625Z" fill="white" fill-opacity="0.6" stroke="white" stroke-opacity="0.6"/>
<path opacity="0.815686" d="M1.50624 8.58594L1.52029 8.6843H1.49219L1.50624 8.58594Z" fill="white" fill-opacity="0.6" stroke="white" stroke-opacity="0.6"/>
<path opacity="0.815686" d="M14.8266 8.67188L14.8406 8.74213H14.8125L14.8266 8.67188Z" fill="white" fill-opacity="0.6" stroke="white" stroke-opacity="0.6"/>
<path opacity="0.815686" d="M1.52968 8.78906L1.54373 8.85932H1.51562L1.52968 8.78906Z" fill="white" fill-opacity="0.6" stroke="white" stroke-opacity="0.6"/>
<path opacity="0.815686" d="M14.8031 8.84375L14.8172 8.91401H14.7891L14.8031 8.84375Z" fill="white" fill-opacity="0.6" stroke="white" stroke-opacity="0.6"/>
<path opacity="0.815686" d="M1.56093 8.95312L1.57498 9.02338H1.54688L1.56093 8.95312Z" fill="white" fill-opacity="0.6" stroke="white" stroke-opacity="0.6"/>
<path opacity="0.815686" d="M1.58436 9.09375L1.59842 9.16401H1.57031L1.58436 9.09375Z" fill="white" fill-opacity="0.6" stroke="white" stroke-opacity="0.6"/>
<path opacity="0.815686" d="M4.39062 9.85156L4.41873 9.90777" stroke="white" stroke-opacity="0.6"/>
<path opacity="0.815686" d="M11.9422 9.85156L11.9141 9.90777" stroke="white" stroke-opacity="0.6"/>
<path opacity="0.815686" d="M4.47656 9.99219L4.50467 10.0484" stroke="white" stroke-opacity="0.6"/>
<path opacity="0.815686" d="M11.8562 9.99219L11.8281 10.0484" stroke="white" stroke-opacity="0.6"/>
<path opacity="0.815686" d="M4.53125 10.0781L4.55935 10.1343" stroke="white" stroke-opacity="0.6"/>
<path opacity="0.815686" d="M11.8015 10.0781L11.7734 10.1343" stroke="white" stroke-opacity="0.6"/>
<path opacity="0.815686" d="M4.58594 10.1641L4.61404 10.2203" stroke="white" stroke-opacity="0.6"/>
<path opacity="0.815686" d="M11.739 10.1641L11.7109 10.2203" stroke="white" stroke-opacity="0.6"/>
<path opacity="0.815686" d="M4.64844 10.2422L4.67654 10.2984" stroke="white" stroke-opacity="0.6"/>
<path opacity="0.815686" d="M11.689 10.2422L11.6328 10.3265" stroke="white" stroke-opacity="0.6"/>
<path opacity="0.815686" d="M4.72656 10.3594L4.78277 10.4437" stroke="white" stroke-opacity="0.6"/>
<path opacity="0.815686" d="M11.6031 10.3594L11.5469 10.4437" stroke="white" stroke-opacity="0.6"/>
<path opacity="0.815686" d="M4.84375 10.5L4.95616 10.6405" stroke="white" stroke-opacity="0.6"/>
<path opacity="0.815686" d="M11.4874 10.5L11.375 10.6405" stroke="white" stroke-opacity="0.6"/>
<path opacity="0.815686" d="M5.26562 10.9141L5.37804 11.0546" stroke="white" stroke-opacity="0.6"/>
<path opacity="0.815686" d="M11.0655 10.9141L10.9531 11.0546" stroke="white" stroke-opacity="0.6"/>
<path opacity="0.815686" d="M2.25781 10.9453L2.28592 11.0015" stroke="white" stroke-opacity="0.6"/>
<path opacity="0.815686" d="M14.0437 11L14.0156 11.0562" stroke="white" stroke-opacity="0.6"/>
<path opacity="0.815686" d="M5.46094 11.0859L5.51714 11.1702" stroke="white" stroke-opacity="0.6"/>
<path opacity="0.815686" d="M10.8687 11.0859L10.8125 11.1702" stroke="white" stroke-opacity="0.6"/>
<path opacity="0.815686" d="M2.375 11.1406L2.4031 11.1968" stroke="white" stroke-opacity="0.6"/>
<path opacity="0.815686" d="M5.57031 11.1719L5.62652 11.2562" stroke="white" stroke-opacity="0.6"/>
<path opacity="0.815686" d="M10.7312 11.1953L10.7031 11.2515" stroke="white" stroke-opacity="0.6"/>
<path opacity="0.815686" d="M5.67969 11.2578L5.70779 11.314" stroke="white" stroke-opacity="0.6"/>
<path opacity="0.815686" d="M10.6453 11.2578L10.6172 11.314" stroke="white" stroke-opacity="0.6"/>
<path opacity="0.815686" d="M2.46094 11.2812L2.48904 11.3375" stroke="white" stroke-opacity="0.6"/>
<path opacity="0.815686" d="M13.8719 11.2812L13.8438 11.3375" stroke="white" stroke-opacity="0.6"/>
<path opacity="0.815686" d="M5.76562 11.3125L5.79373 11.3687" stroke="white" stroke-opacity="0.6"/>
<path opacity="0.815686" d="M10.5672 11.3125L10.5391 11.3687" stroke="white" stroke-opacity="0.6"/>
<path opacity="0.815686" d="M2.51562 11.3672L2.54373 11.4234" stroke="white" stroke-opacity="0.6"/>
<path opacity="0.815686" d="M5.85156 11.3672L5.87967 11.4234" stroke="white" stroke-opacity="0.6"/>
<path opacity="0.815686" d="M10.4812 11.3672L10.4531 11.4234" stroke="white" stroke-opacity="0.6"/>
<path opacity="0.815686" d="M2.57031 11.4531L2.59842 11.5093" stroke="white" stroke-opacity="0.6"/>
<path opacity="0.815686" d="M5.99219 11.4531L6.02029 11.5093" stroke="white" stroke-opacity="0.6"/>
<path opacity="0.815686" d="M10.3406 11.4531L10.3125 11.5093" stroke="white" stroke-opacity="0.6"/>
<path opacity="0.815686" d="M13.7625 11.4531L13.7344 11.5093" stroke="white" stroke-opacity="0.6"/>
<path opacity="0.815686" d="M2.625 11.5312L2.6531 11.5875" stroke="white" stroke-opacity="0.6"/>
<path opacity="0.815686" d="M13.7078 11.5312L13.6797 11.5875" stroke="white" stroke-opacity="0.6"/>
<path opacity="0.815686" d="M2.67969 11.6172L2.73589 11.7015" stroke="white" stroke-opacity="0.6"/>
<path opacity="0.815686" d="M13.6531 11.6172L13.625 11.6734" stroke="white" stroke-opacity="0.6"/>
<path opacity="0.815686" d="M2.76562 11.7344L2.82183 11.8187" stroke="white" stroke-opacity="0.6"/>
<path opacity="0.815686" d="M13.5672 11.7344L13.5391 11.7906" stroke="white" stroke-opacity="0.6"/>
<path opacity="0.815686" d="M2.85156 11.8438L2.93587 11.9562" stroke="white" stroke-opacity="0.6"/>
<path opacity="0.815686" d="M13.4781 11.8438L13.4219 11.9281" stroke="white" stroke-opacity="0.6"/>
<path opacity="0.815686" d="M7.28125 11.9531L7.35151 11.9672L7.28125 11.9812V11.9531Z" fill="white" fill-opacity="0.6" stroke="white" stroke-opacity="0.6"/>
<path opacity="0.815686" d="M8.99219 11.9531L9.06245 11.9672L8.99219 11.9812V11.9531Z" fill="white" fill-opacity="0.6" stroke="white" stroke-opacity="0.6"/>
<path opacity="0.815686" d="M8.91249 11.9844L8.92654 12.2233H8.89844L8.91249 11.9844Z" fill="white" fill-opacity="0.6" stroke="white" stroke-opacity="0.6"/>
<path opacity="0.815686" d="M13.3656 11.9844L13.2812 12.0968" stroke="white" stroke-opacity="0.6"/>
<path opacity="0.815686" d="M2.99219 12.0156L3.04839 12.0999" stroke="white" stroke-opacity="0.6"/>
<path opacity="0.815686" d="M13.2016 12.1797L12.6406 12.7688" stroke="white" stroke-opacity="0.6"/>
<path opacity="0.815686" d="M3.15625 12.2109L3.68922 12.772" stroke="white" stroke-opacity="0.6"/>
<path opacity="0.815686" d="M12.5531 12.7969L12.4688 12.9093" stroke="white" stroke-opacity="0.6"/>
<path opacity="0.815686" d="M3.80469 12.8281L3.86089 12.9124" stroke="white" stroke-opacity="0.6"/>
<path opacity="0.815686" d="M12.389 12.9375L12.3047 13.0499" stroke="white" stroke-opacity="0.6"/>
<path opacity="0.815686" d="M3.96875 12.9688L4.02496 13.0531" stroke="white" stroke-opacity="0.6"/>
<path opacity="0.815686" d="M4.08594 13.0469L4.14214 13.1312" stroke="white" stroke-opacity="0.6"/>
<path opacity="0.815686" d="M12.2437 13.0469L12.1875 13.1312" stroke="white" stroke-opacity="0.6"/>
<path opacity="0.815686" d="M4.19531 13.1328L4.25152 13.2171" stroke="white" stroke-opacity="0.6"/>
<path opacity="0.815686" d="M12.1343 13.1328L12.0781 13.2171" stroke="white" stroke-opacity="0.6"/>
<path opacity="0.815686" d="M4.30469 13.2188L4.33279 13.275" stroke="white" stroke-opacity="0.6"/>
<path opacity="0.815686" d="M12.0203 13.2188L11.9922 13.275" stroke="white" stroke-opacity="0.6"/>
<path opacity="0.815686" d="M4.39062 13.2734L4.41873 13.3296" stroke="white" stroke-opacity="0.6"/>
<path opacity="0.815686" d="M11.9422 13.2734L11.9141 13.3296" stroke="white" stroke-opacity="0.6"/>
<path opacity="0.815686" d="M4.47656 13.3281L4.50467 13.3843" stroke="white" stroke-opacity="0.6"/>
<path opacity="0.815686" d="M11.8562 13.3281L11.8281 13.3843" stroke="white" stroke-opacity="0.6"/>
<path opacity="0.815686" d="M4.5625 13.3828L4.5906 13.439" stroke="white" stroke-opacity="0.6"/>
<path opacity="0.815686" d="M11.7703 13.3828L11.7422 13.439" stroke="white" stroke-opacity="0.6"/>
<path opacity="0.815686" d="M11.6297 13.4688L11.6016 13.525" stroke="white" stroke-opacity="0.6"/>
<path opacity="0.815686" d="M4.84375 13.5547L4.87185 13.6109" stroke="white" stroke-opacity="0.6"/>
<path opacity="0.815686" d="M11.4344 13.5859L11.4062 13.6421" stroke="white" stroke-opacity="0.6"/>
<path opacity="0.815686" d="M9.55469 14.2812L9.62495 14.2953L9.55469 14.3094V14.2812Z" fill="white" fill-opacity="0.6" stroke="white" stroke-opacity="0.6"/>
<path opacity="0.815686" d="M9.41406 14.3125L9.48432 14.3266L9.41406 14.3406V14.3125Z" fill="white" fill-opacity="0.6" stroke="white" stroke-opacity="0.6"/>
<path opacity="0.815686" d="M6.97656 14.3438L7.04682 14.3578L6.97656 14.3719V14.3438Z" fill="white" fill-opacity="0.6" stroke="white" stroke-opacity="0.6"/>
<path opacity="0.815686" d="M7.14062 14.3672L7.21088 14.3812L7.14062 14.3953V14.3672Z" fill="white" fill-opacity="0.6" stroke="white" stroke-opacity="0.6"/>
<path opacity="0.815686" d="M9.04688 14.3672L9.14524 14.3812L9.04688 14.3953V14.3672Z" fill="white" fill-opacity="0.6" stroke="white" stroke-opacity="0.6"/>
<path opacity="0.815686" d="M7.33594 14.3984L7.4343 14.4125L7.33594 14.4265V14.3984Z" fill="white" fill-opacity="0.6" stroke="white" stroke-opacity="0.6"/>
<path d="M7.22887 1.04688H7.42522L7.43925 1.0609V3.27692L7.4112 3.45925H7.28497L6.6959 3.62756L5.62997 4.16053L5.32141 3.82391C5.28027 3.83888 5.26624 3.82485 5.27933 3.78184L5.19518 3.73976V3.69769L3.96094 2.46345C4.43219 2.07447 4.96984 1.75189 5.57386 1.49569L6.49954 1.18713L7.22887 1.04688Z" fill="white" fill-opacity="0.6" stroke="white" stroke-opacity="0.6"/>
<path d="M8.89844 1.04688L9.44543 1.10298L10.0345 1.24323L10.8199 1.52374C11.6689 1.89962 12.3936 2.39986 12.9939 3.02446C13.5605 3.59857 14.0187 4.28114 14.3684 5.07218L14.6489 5.85761L14.7891 6.44667L14.8452 6.99367H12.6152L12.4329 6.96562C12.3543 6.43078 12.1954 5.96794 11.956 5.5771C11.6904 5.11519 11.3585 4.7178 10.9602 4.38493C10.6404 4.11564 10.2757 3.89124 9.86619 3.71171C9.57072 3.57894 9.24814 3.48543 8.89844 3.4312V1.04688Z" fill="white" fill-opacity="0.6" stroke="white" stroke-opacity="0.6"/>
<path d="M2.93681 3.51562L4.63389 5.2127L4.57779 5.26881C4.23931 5.74754 4.00555 6.32259 3.87651 6.99394H1.50621L1.49219 6.97991V6.78356L1.63244 6.05423L1.96905 5.07245C2.21777 4.47964 2.54036 3.9607 2.93681 3.51562Z" fill="white" fill-opacity="0.6" stroke="white" stroke-opacity="0.6"/>
<path d="M1.49219 8.45312H3.63808L3.66613 8.48118H3.90457C3.98311 9.01601 4.14206 9.47885 4.38143 9.8697C4.64885 10.3335 4.98079 10.7309 5.37724 11.0619C5.69702 11.3311 6.06168 11.5556 6.47122 11.7351L6.94809 11.9034L7.3969 11.9875L7.43898 12.0296V14.3859L7.42495 14.3999H7.2286L6.30292 14.2036L5.798 14.0353L4.90037 13.6145C4.18975 13.2124 3.5773 12.7122 3.06304 12.1138C2.65162 11.6369 2.30566 11.0946 2.02515 10.4868L1.68854 9.56114L1.54829 8.94402L1.49219 8.45312Z" fill="white" fill-opacity="0.6" stroke="white" stroke-opacity="0.6"/>
<path d="M12.4609 8.45312H14.8312L14.8452 8.46715V8.66351L14.6489 9.58919L14.4806 10.0941L14.0598 10.9917C13.6652 11.6911 13.1743 12.2942 12.5871 12.801C12.1047 13.2255 11.553 13.5808 10.9321 13.867L10.0064 14.2036L9.24907 14.3719L8.89844 14.3999V12.254L8.92649 12.226V11.9875C9.46133 11.909 9.92417 11.75 10.315 11.5107C10.7788 11.2451 11.1762 10.9132 11.5072 10.5149C11.7765 10.1951 12.0009 9.83042 12.1804 9.42088C12.3132 9.12541 12.4067 8.80283 12.4609 8.45312Z" fill="white" fill-opacity="0.6" stroke="white" stroke-opacity="0.6"/>
</g>
<defs>
<clipPath id="clip0_14681_2560">
<rect width="14.3621" height="14.3621" fill="white" transform="translate(0.984375 0.539062)"/>
</clipPath>
</defs>
</svg>
