<svg width="29" height="32" viewBox="0 0 29 32" fill="none" xmlns="http://www.w3.org/2000/svg">
<g clip-path="url(#clip0_14681_2226)">
<path opacity="0.968627" d="M12.8513 0H15.6049L15.6588 0.0544702H16.6307L16.6847 0.10894L17.8725 0.163411L17.9265 0.217881L18.7903 0.272351L20.4641 0.599172H20.734L22.2998 0.980464C23.3724 1.27823 24.3623 1.65953 25.2693 2.12434C26.09 2.53468 26.7829 3.0703 27.348 3.73121L27.8339 4.49379L28.0499 5.25638V26.3364C27.8267 27.3096 27.3678 28.0449 26.6731 28.5424C26.0216 29.0653 25.2837 29.5011 24.4595 29.8497L22.8397 30.4489L20.734 30.9936H20.4641L18.7903 31.3204L17.3866 31.4293L17.3326 31.4838H16.6847L16.6307 31.5383H15.6588L15.6049 31.5927H12.8513L12.7973 31.5383H11.8254L11.7715 31.4838H11.1236L11.0696 31.4293H10.5836L10.5297 31.3748L9.28785 31.2659L7.23617 30.8846L5.61643 30.4489C4.59419 30.1366 3.65834 29.7371 2.80887 29.2505C2.14658 28.8837 1.57966 28.4207 1.10814 27.8615C0.748196 27.4802 0.514233 26.9718 0.40625 26.3364V5.25638L0.514233 4.76614L0.730199 4.27591C1.01455 3.80021 1.3655 3.39168 1.78303 3.05033L3.40278 2.0154L4.80656 1.41623L6.15634 0.980464L7.23617 0.708113L9.28785 0.326821L10.5297 0.217881L10.5836 0.163411H11.0696L11.1236 0.10894L12.7973 0.0544702L12.8513 0ZM12.5003 1.25282L12.4463 1.30729H11.6365L11.5825 1.36176H11.0426L10.9886 1.41623L9.63879 1.52517L8.343 1.79752H8.07304L6.50729 2.17881C5.64342 2.39669 4.85155 2.6872 4.13166 3.05033L2.6199 3.97633C2.15197 4.26683 1.82803 4.7026 1.64805 5.28361V5.88278C1.72004 6.2096 1.86402 6.48196 2.07999 6.69984C2.47592 7.1356 2.96185 7.49873 3.53776 7.78924L5.21149 8.55182L6.56128 8.98759L9.42283 9.58676L10.6646 9.6957L10.7186 9.75017H11.2045L11.2585 9.80464L12.8783 9.85911L12.9323 9.91358H15.5779L15.6318 9.85911L17.2516 9.80464L17.3056 9.75017H17.8455L17.8995 9.6957L19.0873 9.58676L20.5991 9.31441L22.4888 8.82418L23.8386 8.33394C24.6304 8.00712 25.3503 7.58952 25.9982 7.08113C26.3582 6.79062 26.6281 6.39117 26.8081 5.88278V5.28361L26.4301 4.5755L25.6743 3.81292L24.3785 3.05033L22.3808 2.28775L20.923 1.90646L18.8713 1.52517L17.5215 1.41623L17.4676 1.36176H16.9276L16.8737 1.30729H16.0638L16.0098 1.25282H12.5003ZM1.70205 7.95265L1.64805 12.6916C1.72004 13.0184 1.86402 13.2907 2.07999 13.5086C2.47592 13.9444 2.96185 14.3075 3.53776 14.598L4.77956 15.1972L6.18334 15.6874L7.64111 16.0687L9.04489 16.3411L10.1247 16.45L10.1787 16.5045H10.6106L10.6646 16.5589H11.1506L11.2045 16.6134L12.7703 16.6679L12.8243 16.7224H15.6858L15.7398 16.6679H16.6577L16.7117 16.6134H17.3056L17.3596 16.5589H17.8995L18.3854 16.45H18.7634L20.869 16.0687L22.3268 15.6874L23.7306 15.1972L25.0804 14.5435L25.9982 13.8899C26.3582 13.5994 26.6281 13.1999 26.8081 12.6916V7.95265C26.1962 8.49735 25.4943 8.95127 24.7024 9.31441L23.6226 9.75017L21.8409 10.2949L19.0873 10.8396L17.7915 10.9485L17.7375 11.003H17.1436L17.0896 11.0575L15.0379 11.1119L14.9839 11.1664H13.5262L13.4722 11.1119H12.1764L12.1224 11.0575L10.7726 11.003L10.7186 10.9485H10.2867L10.2327 10.894L9.09888 10.7851L7.37115 10.4583L5.69741 10.0225L4.18565 9.47782L2.51192 8.60629L1.70205 7.95265ZM1.64805 14.8159V19.5003L2.02599 20.2629C2.42193 20.6987 2.88986 21.0618 3.42977 21.3523L4.5096 21.897L5.64342 22.3328L7.37115 22.823L8.66695 23.0954L9.63879 23.2043L9.69278 23.2588H10.0707L10.1247 23.3133H10.5027L10.5566 23.3677L11.6905 23.4222L11.7445 23.4767H12.6083L12.6623 23.5311H15.8478L15.9018 23.4767H16.7657L16.8197 23.4222H17.4136L17.4676 23.3677L18.8173 23.2588L20.6531 22.932L22.1648 22.5507L23.6226 22.0604L25.0804 21.3523L25.9442 20.7532C26.3402 20.4626 26.6281 20.045 26.8081 19.5003V14.8159C26.1962 15.3243 25.4943 15.76 24.7024 16.1232L22.2728 16.9947L20.1131 17.4849L18.7634 17.6484L18.7094 17.7028L17.2516 17.8118L17.1976 17.8662H16.4957L16.4417 17.9207H15.2539L15.1999 17.9752H13.3102L13.2562 17.9207L11.3125 17.8662L11.2585 17.8118H10.7186L10.6646 17.7573H10.2327L10.1787 17.7028L9.04489 17.5939L7.31716 17.2671C6.02136 16.9766 4.85155 16.5953 3.80771 16.1232C2.97984 15.76 2.25996 15.3243 1.64805 14.8159ZM1.70205 21.6247L1.64805 26.3636L2.02599 27.0717C2.45793 27.5801 3.01584 27.9977 3.69973 28.3245C4.41962 28.724 5.22949 29.0508 6.12935 29.305L8.07304 29.7952H8.343L9.63879 30.0676L10.9886 30.1765L11.0426 30.231H11.5825L11.6365 30.2854H12.4463L12.5003 30.3399H16.0098L16.0638 30.2854H16.8737L16.9276 30.231H17.4676L17.5215 30.1765L18.8713 30.0676L20.4371 29.7952L22.0028 29.4139L23.3526 28.9782L24.8104 28.3245L25.8902 27.6164L26.5921 26.8538L26.8081 26.3091V21.6247L25.9442 22.2783L24.4864 23.0409L22.4888 23.749L20.977 24.1303L19.5192 24.4027L18.3854 24.5116L18.3314 24.5661H17.8995L17.8455 24.6205L16.6037 24.675L16.5497 24.7295H15.4699L15.4159 24.7839H13.0942L13.0403 24.7295L11.2585 24.675L11.2045 24.6205H10.7186L10.6646 24.5661H10.1787L10.1247 24.5116L8.99089 24.4027L6.83124 23.9669L5.1575 23.4767L3.9157 22.9864C3.05183 22.6233 2.31395 22.1694 1.70205 21.6247Z" fill="white" fill-opacity="0.6" stroke="white" stroke-opacity="0.6"/>
<path opacity="0.968627" d="M24.2473 11.7656H24.5173L24.8682 12.0107C24.9762 12.1197 25.0122 12.3012 24.9762 12.5554L24.7332 12.9095C24.6288 13.0039 24.4669 13.0402 24.2473 13.0184L23.8424 12.7189L23.7344 12.392C23.774 12.1233 23.891 11.9327 24.0853 11.8201L24.2473 11.7656Z" fill="white" fill-opacity="0.6" stroke="white" stroke-opacity="0.6"/>
<path opacity="0.968627" d="M21.8716 12.3672C22.1416 12.3853 22.3305 12.4852 22.4385 12.6668L22.5465 13.0481L22.3845 13.4566L22.0876 13.62H21.7636L21.3587 13.3204L21.3047 12.8302L21.4667 12.5306L21.8716 12.3672Z" fill="white" fill-opacity="0.6" stroke="white" stroke-opacity="0.6"/>
<path opacity="0.968627" d="M19.2792 13.0164C19.6608 12.9764 19.9037 13.0763 20.0081 13.316L20.0621 13.8062L19.7652 14.1602L19.4412 14.2692C19.2037 14.2365 19.0327 14.1366 18.9283 13.9696L18.8203 13.5338L18.9823 13.1798L19.2792 13.0164Z" fill="white" fill-opacity="0.6" stroke="white" stroke-opacity="0.6"/>
<path opacity="0.968627" d="M24.2473 18.5708C24.546 18.5635 24.753 18.6452 24.8682 18.8159C24.9762 18.9248 25.0122 19.1064 24.9762 19.3606L24.7332 19.7146C24.636 19.8163 24.4741 19.8526 24.2473 19.8236L23.8424 19.524L23.7344 19.1972C23.7668 18.9575 23.8658 18.785 24.0313 18.6797L24.2473 18.5708Z" fill="white" fill-opacity="0.6" stroke="white" stroke-opacity="0.6"/>
<path opacity="0.968627" d="M21.7096 19.2266H22.1416L22.4385 19.4717L22.5465 19.853L22.4925 20.0709L22.3035 20.316C22.1847 20.4322 21.9868 20.4685 21.7096 20.4249L21.3587 20.1253L21.3047 19.6351L21.6016 19.281L21.7096 19.2266Z" fill="white" fill-opacity="0.6" stroke="white" stroke-opacity="0.6"/>
<path opacity="0.968627" d="M19.2792 19.8239C19.6284 19.7803 19.8533 19.862 19.9541 20.069C20.0621 20.1779 20.0981 20.3595 20.0621 20.6137L19.7112 21.0222L19.3872 21.0767C19.1821 21.0331 19.0291 20.9332 18.9283 20.7771L18.8203 20.3958L18.8743 20.1779L19.1713 19.8783L19.2792 19.8239Z" fill="white" fill-opacity="0.6" stroke="white" stroke-opacity="0.6"/>
<path opacity="0.968627" d="M24.3013 25.3828C24.5712 25.3828 24.7602 25.4645 24.8682 25.6279C24.9762 25.7369 25.0122 25.9184 24.9762 26.1726L24.7332 26.5267C24.636 26.6284 24.4741 26.6647 24.2473 26.6356L23.8424 26.336L23.7344 26.0092C23.7668 25.7696 23.8658 25.5971 24.0313 25.4918L24.3013 25.3828Z" fill="white" fill-opacity="0.6" stroke="white" stroke-opacity="0.6"/>
<path opacity="0.968627" d="M21.7096 26.0381C22.084 25.9872 22.3269 26.0689 22.4385 26.2832L22.5465 26.6645L22.4385 26.9913L22.3035 27.1275C22.1991 27.2582 22.0012 27.2945 21.7096 27.2364L21.3587 26.9368L21.3047 26.5011L21.6016 26.0925L21.7096 26.0381Z" fill="white" fill-opacity="0.6" stroke="white" stroke-opacity="0.6"/>
<path opacity="0.968627" d="M19.3332 26.6328H19.6032L19.9541 26.8779C20.0621 26.9869 20.0981 27.1684 20.0621 27.4226L19.8731 27.7222C19.7724 27.8566 19.5924 27.911 19.3332 27.8856L18.9283 27.586L18.8203 27.2047C18.8743 26.9687 18.9913 26.7962 19.1713 26.6873L19.3332 26.6328Z" fill="white" fill-opacity="0.6" stroke="white" stroke-opacity="0.6"/>
</g>
<defs>
<clipPath id="clip0_14681_2226">
<rect width="27.6436" height="31.5927" fill="white" transform="translate(0.40625)"/>
</clipPath>
</defs>
</svg>
