<svg width="29" height="32" viewBox="0 0 29 32" fill="none" xmlns="http://www.w3.org/2000/svg">
<g clip-path="url(#clip0_14681_2033)">
<path opacity="0.968627" d="M13.2263 0.304688H15.9799L16.0338 0.359158H17.0057L17.0597 0.413628L18.2475 0.468098L18.3015 0.522568L19.1653 0.577039L20.8391 0.90386H21.109L22.6748 1.28515C23.7474 1.58292 24.7373 1.96421 25.6443 2.42903C26.465 2.83937 27.1579 3.37499 27.723 4.0359L28.2089 4.79848L28.4249 5.56106V26.641C28.2017 27.6142 27.7428 28.3496 27.0481 28.8471C26.3966 29.37 25.6587 29.8058 24.8345 30.1544L23.2147 30.7535L21.109 31.2982H20.8391L19.1653 31.6251L17.7616 31.734L17.7076 31.7885H17.0597L17.0057 31.8429H16.0338L15.9799 31.8974H13.2263L13.1723 31.8429H12.2004L12.1465 31.7885H11.4986L11.4446 31.734H10.9586L10.9047 31.6795L9.66285 31.5706L7.61117 31.1893L5.99143 30.7535C4.96919 30.4412 4.03334 30.0418 3.18387 29.5552C2.52158 29.1884 1.95466 28.7254 1.48314 28.1662C1.1232 27.7849 0.889233 27.2765 0.78125 26.641V5.56106L0.889233 5.07083L1.1052 4.5806C1.38955 4.10489 1.7405 3.69637 2.15803 3.35502L3.77778 2.32009L5.18156 1.72091L6.53134 1.28515L7.61117 1.0128L9.66285 0.631509L10.9047 0.522568L10.9586 0.468098H11.4446L11.4986 0.413628L13.1723 0.359158L13.2263 0.304688ZM12.8753 1.5575L12.8213 1.61197H12.0115L11.9575 1.66644H11.4176L11.3636 1.72091L10.0138 1.82985L8.718 2.1022H8.44804L6.88229 2.4835C6.01842 2.70138 5.22655 2.99188 4.50666 3.35502L2.9949 4.28101C2.52697 4.57152 2.20303 5.00728 2.02305 5.5883V6.18747C2.09504 6.51429 2.23902 6.78664 2.45499 7.00452C2.85092 7.44029 3.33685 7.80342 3.91276 8.09393L5.58649 8.85651L6.93628 9.29227L9.79783 9.89145L11.0396 10.0004L11.0936 10.0549H11.5795L11.6335 10.1093L13.2533 10.1638L13.3073 10.2183H15.9529L16.0068 10.1638L17.6266 10.1093L17.6806 10.0549H18.2205L18.2745 10.0004L19.4623 9.89145L20.9741 9.61909L22.8638 9.12886L24.2136 8.63863C25.0054 8.31181 25.7253 7.8942 26.3732 7.38582C26.7332 7.09531 27.0031 6.69586 27.1831 6.18747V5.5883L26.8051 4.88019L26.0493 4.1176L24.7535 3.35502L22.7558 2.59244L21.298 2.21115L19.2463 1.82985L17.8965 1.72091L17.8426 1.66644H17.3026L17.2487 1.61197H16.4388L16.3848 1.5575H12.8753ZM2.07705 8.25734L2.02305 12.9962C2.09504 13.3231 2.23902 13.5954 2.45499 13.8133C2.85092 14.2491 3.33685 14.6122 3.91276 14.9027L5.15456 15.5019L6.55834 15.9921L8.01611 16.3734L9.41989 16.6458L10.4997 16.7547L10.5537 16.8092H10.9856L11.0396 16.8636H11.5256L11.5795 16.9181L13.1453 16.9726L13.1993 17.027H16.0608L16.1148 16.9726H17.0327L17.0867 16.9181H17.6806L17.7346 16.8636H18.2745L18.7604 16.7547H19.1384L21.244 16.3734L22.7018 15.9921L24.1056 15.5019L25.4554 14.8482L26.3732 14.1946C26.7332 13.9041 27.0031 13.5046 27.1831 12.9962V8.25734C26.5712 8.80204 25.8693 9.25596 25.0774 9.61909L23.9976 10.0549L22.2159 10.5996L19.4623 11.1443L18.1665 11.2532L18.1125 11.3077H17.5186L17.4646 11.3621L15.4129 11.4166L15.3589 11.4711H13.9012L13.8472 11.4166H12.5514L12.4974 11.3621L11.1476 11.3077L11.0936 11.2532H10.6617L10.6077 11.1987L9.47388 11.0898L7.74615 10.763L6.07241 10.3272L4.56065 9.78251L2.88692 8.91098L2.07705 8.25734ZM2.02305 15.1206V19.805L2.40099 20.5676C2.79693 21.0034 3.26486 21.3665 3.80477 21.657L4.8846 22.2017L6.01842 22.6375L7.74615 23.1277L9.04195 23.4001L10.0138 23.509L10.0678 23.5635H10.4457L10.4997 23.6179H10.8777L10.9316 23.6724L12.0655 23.7269L12.1195 23.7814H12.9833L13.0373 23.8358H16.2228L16.2768 23.7814H17.1407L17.1947 23.7269H17.7886L17.8426 23.6724L19.1923 23.5635L21.0281 23.2366L22.5398 22.8554L23.9976 22.3651L25.4554 21.657L26.3192 21.0578C26.7152 20.7673 27.0031 20.3497 27.1831 19.805V15.1206C26.5712 15.629 25.8693 16.0647 25.0774 16.4279L22.6478 17.2994L20.4881 17.7896L19.1384 17.953L19.0844 18.0075L17.6266 18.1164L17.5726 18.1709H16.8707L16.8167 18.2254H15.6289L15.5749 18.2799H13.6852L13.6312 18.2254L11.6875 18.1709L11.6335 18.1164H11.0936L11.0396 18.062H10.6077L10.5537 18.0075L9.41989 17.8986L7.69216 17.5717C6.39636 17.2812 5.22655 16.8999 4.18271 16.4279C3.35484 16.0647 2.63496 15.629 2.02305 15.1206ZM2.07705 21.9294L2.02305 26.6683L2.40099 27.3764C2.83293 27.8848 3.39084 28.3024 4.07473 28.6292C4.79462 29.0286 5.60449 29.3555 6.50435 29.6097L8.44804 30.0999H8.718L10.0138 30.3722L11.3636 30.4812L11.4176 30.5357H11.9575L12.0115 30.5901H12.8213L12.8753 30.6446H16.3848L16.4388 30.5901H17.2487L17.3026 30.5357H17.8426L17.8965 30.4812L19.2463 30.3722L20.8121 30.0999L22.3778 29.7186L23.7276 29.2828L25.1854 28.6292L26.2652 27.9211L26.9671 27.1585L27.1831 26.6138V21.9294L26.3192 22.583L24.8614 23.3456L22.8638 24.0537L21.352 24.435L19.8942 24.7073L18.7604 24.8163L18.7064 24.8708H18.2745L18.2205 24.9252L16.9787 24.9797L16.9247 25.0342H15.8449L15.7909 25.0886H13.4692L13.4153 25.0342L11.6335 24.9797L11.5795 24.9252H11.0936L11.0396 24.8708H10.5537L10.4997 24.8163L9.36589 24.7073L7.20624 24.2716L5.5325 23.7814L4.2907 23.2911C3.42683 22.928 2.68895 22.4741 2.07705 21.9294Z" fill="white" fill-opacity="0.6" stroke="white" stroke-opacity="0.6"/>
<path opacity="0.968627" d="M24.6223 12.0703H24.8923L25.2432 12.3154C25.3512 12.4244 25.3872 12.6059 25.3512 12.8601L25.1082 13.2142C25.0038 13.3086 24.8419 13.3449 24.6223 13.3231L24.2174 13.0235L24.1094 12.6967C24.149 12.428 24.266 12.2374 24.4603 12.1248L24.6223 12.0703Z" fill="white" fill-opacity="0.6" stroke="white" stroke-opacity="0.6"/>
<path opacity="0.968627" d="M22.2466 12.6719C22.5166 12.69 22.7055 12.7899 22.8135 12.9715L22.9215 13.3528L22.7595 13.7613L22.4626 13.9247H22.1386L21.7337 13.6251L21.6797 13.1349L21.8417 12.8353L22.2466 12.6719Z" fill="white" fill-opacity="0.6" stroke="white" stroke-opacity="0.6"/>
<path opacity="0.968627" d="M19.6542 13.3211C20.0358 13.2811 20.2787 13.381 20.3831 13.6206L20.4371 14.1109L20.1402 14.4649L19.8162 14.5739C19.5787 14.5412 19.4077 14.4413 19.3033 14.2743L19.1953 13.8385L19.3573 13.4845L19.6542 13.3211Z" fill="white" fill-opacity="0.6" stroke="white" stroke-opacity="0.6"/>
<path opacity="0.968627" d="M24.6223 18.8754C24.921 18.8682 25.128 18.9499 25.2432 19.1206C25.3512 19.2295 25.3872 19.4111 25.3512 19.6653L25.1082 20.0193C25.011 20.121 24.8491 20.1573 24.6223 20.1283L24.2174 19.8287L24.1094 19.5019C24.1418 19.2622 24.2408 19.0897 24.4063 18.9844L24.6223 18.8754Z" fill="white" fill-opacity="0.6" stroke="white" stroke-opacity="0.6"/>
<path opacity="0.968627" d="M22.0846 19.5312H22.5166L22.8135 19.7764L22.9215 20.1577L22.8675 20.3755L22.6785 20.6207C22.5597 20.7369 22.3618 20.7732 22.0846 20.7296L21.7337 20.43L21.6797 19.9398L21.9766 19.5857L22.0846 19.5312Z" fill="white" fill-opacity="0.6" stroke="white" stroke-opacity="0.6"/>
<path opacity="0.968627" d="M19.6542 20.1286C20.0034 20.085 20.2283 20.1667 20.3291 20.3737C20.4371 20.4826 20.4731 20.6642 20.4371 20.9184L20.0862 21.3269L19.7622 21.3814C19.5571 21.3378 19.4041 21.2379 19.3033 21.0818L19.1953 20.7005L19.2493 20.4826L19.5463 20.183L19.6542 20.1286Z" fill="white" fill-opacity="0.6" stroke="white" stroke-opacity="0.6"/>
<path opacity="0.968627" d="M24.6763 25.6875C24.9462 25.6875 25.1352 25.7692 25.2432 25.9326C25.3512 26.0416 25.3872 26.2231 25.3512 26.4773L25.1082 26.8314C25.011 26.9331 24.8491 26.9694 24.6223 26.9403L24.2174 26.6407L24.1094 26.3139C24.1418 26.0742 24.2408 25.9017 24.4063 25.7964L24.6763 25.6875Z" fill="white" fill-opacity="0.6" stroke="white" stroke-opacity="0.6"/>
<path opacity="0.968627" d="M22.0846 26.3427C22.459 26.2919 22.7019 26.3736 22.8135 26.5879L22.9215 26.9692L22.8135 27.296L22.6785 27.4322C22.5741 27.5629 22.3762 27.5992 22.0846 27.5411L21.7337 27.2415L21.6797 26.8057L21.9766 26.3972L22.0846 26.3427Z" fill="white" fill-opacity="0.6" stroke="white" stroke-opacity="0.6"/>
<path opacity="0.968627" d="M19.7082 26.9375H19.9782L20.3291 27.1826C20.4371 27.2916 20.4731 27.4731 20.4371 27.7273L20.2481 28.0269C20.1474 28.1613 19.9674 28.2157 19.7082 28.1903L19.3033 27.8907L19.1953 27.5094C19.2493 27.2734 19.3663 27.1009 19.5463 26.992L19.7082 26.9375Z" fill="white" fill-opacity="0.6" stroke="white" stroke-opacity="0.6"/>
</g>
<defs>
<clipPath id="clip0_14681_2033">
<rect width="27.6436" height="31.5927" fill="white" transform="translate(0.78125 0.304688)"/>
</clipPath>
</defs>
</svg>
