<svg width="36" height="36" viewBox="0 0 36 36" fill="none" xmlns="http://www.w3.org/2000/svg">
<g clip-path="url(#clip0_14699_3347)">
<path opacity="0.815686" d="M15.7266 1.17188L15.9695 1.20658L15.7266 1.24129V1.17188Z" fill="white" fill-opacity="0.6" stroke="white" stroke-opacity="0.6"/>
<path opacity="0.815686" d="M19.6094 1.17188L19.8523 1.20658L19.6094 1.24129V1.17188Z" fill="white" fill-opacity="0.6" stroke="white" stroke-opacity="0.6"/>
<path opacity="0.815686" d="M15.2344 1.24219L15.4079 1.2769L15.2344 1.31161V1.24219Z" fill="white" fill-opacity="0.6" stroke="white" stroke-opacity="0.6"/>
<path opacity="0.815686" d="M20.1641 1.24219L20.3376 1.2769L20.1641 1.31161V1.24219Z" fill="white" fill-opacity="0.6" stroke="white" stroke-opacity="0.6"/>
<path opacity="0.815686" d="M14.75 1.3125L14.9235 1.34721L14.75 1.38192V1.3125Z" fill="white" fill-opacity="0.6" stroke="white" stroke-opacity="0.6"/>
<path opacity="0.815686" d="M20.5859 1.3125L20.7595 1.34721L20.5859 1.38192V1.3125Z" fill="white" fill-opacity="0.6" stroke="white" stroke-opacity="0.6"/>
<path opacity="0.815686" d="M9.81942 3.04688L9.75 3.18571" stroke="white" stroke-opacity="0.6"/>
<path opacity="0.815686" d="M25.9297 3.1875L25.9991 3.32634" stroke="white" stroke-opacity="0.6"/>
<path opacity="0.815686" d="M9.33504 3.32812L9.26562 3.46696" stroke="white" stroke-opacity="0.6"/>
<path opacity="0.815686" d="M26.4141 3.46094L26.4835 3.59977" stroke="white" stroke-opacity="0.6"/>
<path opacity="0.815686" d="M26.625 3.60156L26.6944 3.7404" stroke="white" stroke-opacity="0.6"/>
<path opacity="0.815686" d="M8.78036 3.67188L8.71094 3.81071" stroke="white" stroke-opacity="0.6"/>
<path opacity="0.815686" d="M8.56942 3.8125L8.5 3.95134" stroke="white" stroke-opacity="0.6"/>
<path opacity="0.815686" d="M27.0391 3.88281L27.1085 4.02165" stroke="white" stroke-opacity="0.6"/>
<path opacity="0.815686" d="M8.36629 3.94531L8.29688 4.08415" stroke="white" stroke-opacity="0.6"/>
<path opacity="0.815686" d="M27.25 4.01562L27.3194 4.15446" stroke="white" stroke-opacity="0.6"/>
<path opacity="0.815686" d="M8.15536 4.08594L8.08594 4.22477" stroke="white" stroke-opacity="0.6"/>
<path opacity="0.815686" d="M27.4531 4.15625L27.5225 4.29509" stroke="white" stroke-opacity="0.6"/>
<path opacity="0.815686" d="M7.88192 4.29688L7.8125 4.43571" stroke="white" stroke-opacity="0.6"/>
<path opacity="0.815686" d="M27.7344 4.36719L27.8038 4.50602" stroke="white" stroke-opacity="0.6"/>
<path opacity="0.815686" d="M7.59977 4.50781L7.46094 4.71607" stroke="white" stroke-opacity="0.6"/>
<path opacity="0.815686" d="M28.0078 4.57031L28.1466 4.77857" stroke="white" stroke-opacity="0.6"/>
<path opacity="0.815686" d="M7.39062 4.78125L10.3756 7.83562" stroke="white" stroke-opacity="0.6"/>
<path opacity="0.815686" d="M28.3594 4.85156L28.5676 5.12923" stroke="white" stroke-opacity="0.6"/>
<path opacity="0.815686" d="M28.8438 5.26562L29.3991 5.89038" stroke="white" stroke-opacity="0.6"/>
<path opacity="0.815686" d="M29.7422 6.17188L30.2281 6.72722" stroke="white" stroke-opacity="0.6"/>
<path opacity="0.815686" d="M15.9331 6.79688L15.9679 7.17867H15.8984L15.9331 6.79688Z" fill="white" fill-opacity="0.6" stroke="white" stroke-opacity="0.6"/>
<path opacity="0.815686" d="M30.4375 6.9375L30.6458 7.21517" stroke="white" stroke-opacity="0.6"/>
<path opacity="0.815686" d="M15.5859 7.21094L15.7595 7.24565L15.5859 7.28036V7.21094Z" fill="white" fill-opacity="0.6" stroke="white" stroke-opacity="0.6"/>
<path opacity="0.815686" d="M19.8906 7.21094L20.0642 7.24565L19.8906 7.28036V7.21094Z" fill="white" fill-opacity="0.6" stroke="white" stroke-opacity="0.6"/>
<path opacity="0.815686" d="M4.75692 7.35156L4.6875 7.4904" stroke="white" stroke-opacity="0.6"/>
<path opacity="0.815686" d="M30.7891 7.35156L30.9279 7.55982" stroke="white" stroke-opacity="0.6"/>
<path opacity="0.815686" d="M4.54509 7.625L4.40625 7.83325" stroke="white" stroke-opacity="0.6"/>
<path opacity="0.815686" d="M31.0625 7.69531L31.1319 7.83415" stroke="white" stroke-opacity="0.6"/>
<path opacity="0.815686" d="M4.34196 7.90625L4.20312 8.1145" stroke="white" stroke-opacity="0.6"/>
<path opacity="0.815686" d="M10.5156 7.90625L10.585 8.04509" stroke="white" stroke-opacity="0.6"/>
<path opacity="0.815686" d="M31.2734 7.97656L31.3429 8.1154" stroke="white" stroke-opacity="0.6"/>
<path opacity="0.815686" d="M10.7266 8.11719L10.8654 8.32544" stroke="white" stroke-opacity="0.6"/>
<path opacity="0.815686" d="M4.13192 8.17969L4.0625 8.31852" stroke="white" stroke-opacity="0.6"/>
<path opacity="0.815686" d="M31.4141 8.17969L31.4835 8.31852" stroke="white" stroke-opacity="0.6"/>
<path opacity="0.815686" d="M12.46 8.39062L12.3906 8.52946" stroke="white" stroke-opacity="0.6"/>
<path opacity="0.815686" d="M23.0781 8.39062L23.1475 8.52946" stroke="white" stroke-opacity="0.6"/>
<path opacity="0.815686" d="M31.5469 8.39062L31.6163 8.52946" stroke="white" stroke-opacity="0.6"/>
<path opacity="0.815686" d="M12.1163 8.60156L12.0469 8.7404" stroke="white" stroke-opacity="0.6"/>
<path opacity="0.815686" d="M23.4297 8.60156L23.4991 8.7404" stroke="white" stroke-opacity="0.6"/>
<path opacity="0.815686" d="M11.9054 8.74219L11.8359 8.88102" stroke="white" stroke-opacity="0.6"/>
<path opacity="0.815686" d="M31.8281 8.80469L31.8975 8.94352" stroke="white" stroke-opacity="0.6"/>
<path opacity="0.815686" d="M23.8438 8.875L23.9132 9.01384" stroke="white" stroke-opacity="0.6"/>
<path opacity="0.815686" d="M3.57723 9.01562L3.50781 9.15446" stroke="white" stroke-opacity="0.6"/>
<path opacity="0.815686" d="M24.0547 9.01562L24.1241 9.15446" stroke="white" stroke-opacity="0.6"/>
<path opacity="0.815686" d="M31.9688 9.01562L32.0382 9.15446" stroke="white" stroke-opacity="0.6"/>
<path opacity="0.815686" d="M24.3281 9.22656L24.467 9.43482" stroke="white" stroke-opacity="0.6"/>
<path opacity="0.815686" d="M3.36629 9.36719L3.29688 9.50602" stroke="white" stroke-opacity="0.6"/>
<path opacity="0.815686" d="M24.6797 9.5L24.9574 9.84709" stroke="white" stroke-opacity="0.6"/>
<path opacity="0.815686" d="M32.2422 9.5L32.3116 9.63884" stroke="white" stroke-opacity="0.6"/>
<path opacity="0.815686" d="M3.02254 9.99219L2.95312 10.131" stroke="white" stroke-opacity="0.6"/>
<path opacity="0.815686" d="M2.74475 10.4766L2.77946 10.5807L2.67533 10.7542L2.64062 10.6501L2.74475 10.4766Z" fill="white" fill-opacity="0.6" stroke="white" stroke-opacity="0.6"/>
<path opacity="0.815686" d="M25.7188 10.5469L25.9964 10.894" stroke="white" stroke-opacity="0.6"/>
<path opacity="0.815686" d="M26.1328 11.0312L26.2716 11.2395" stroke="white" stroke-opacity="0.6"/>
<path opacity="0.815686" d="M26.3438 11.3047L26.4826 11.5129" stroke="white" stroke-opacity="0.6"/>
<path opacity="0.815686" d="M8.99129 11.5859L8.92188 11.7248" stroke="white" stroke-opacity="0.6"/>
<path opacity="0.815686" d="M26.5547 11.5859L26.6241 11.7248" stroke="white" stroke-opacity="0.6"/>
<path opacity="0.815686" d="M8.85067 11.7969L8.78125 11.9357" stroke="white" stroke-opacity="0.6"/>
<path opacity="0.815686" d="M26.6875 11.7969L26.7569 11.9357" stroke="white" stroke-opacity="0.6"/>
<path opacity="0.815686" d="M8.71004 12L8.64062 12.1388" stroke="white" stroke-opacity="0.6"/>
<path opacity="0.815686" d="M26.8281 12L26.8975 12.1388" stroke="white" stroke-opacity="0.6"/>
<path opacity="0.815686" d="M8.50692 12.3516L8.4375 12.4904" stroke="white" stroke-opacity="0.6"/>
<path opacity="0.815686" d="M27.0391 12.3516L27.1085 12.4904" stroke="white" stroke-opacity="0.6"/>
<path opacity="0.815686" d="M1.55815 13.7344L1.59286 13.9079H1.52344L1.55815 13.7344Z" fill="white" fill-opacity="0.6" stroke="white" stroke-opacity="0.6"/>
<path opacity="0.815686" d="M1.42533 14.3594L1.46004 14.5329H1.39062L1.42533 14.3594Z" fill="white" fill-opacity="0.6" stroke="white" stroke-opacity="0.6"/>
<path opacity="0.815686" d="M1.35502 14.7109L1.38973 14.8845H1.32031L1.35502 14.7109Z" fill="white" fill-opacity="0.6" stroke="white" stroke-opacity="0.6"/>
<path opacity="0.815686" d="M34.191 14.7812L34.2257 14.9548H34.1562L34.191 14.7812Z" fill="white" fill-opacity="0.6" stroke="white" stroke-opacity="0.6"/>
<path opacity="0.815686" d="M1.28471 15.1953L1.31942 15.3689H1.25L1.28471 15.1953Z" fill="white" fill-opacity="0.6" stroke="white" stroke-opacity="0.6"/>
<path opacity="0.815686" d="M34.2613 15.1953L34.296 15.3689H34.2266L34.2613 15.1953Z" fill="white" fill-opacity="0.6" stroke="white" stroke-opacity="0.6"/>
<path opacity="0.815686" d="M28.2847 15.5391L28.3194 15.7126H28.25L28.2847 15.5391Z" fill="white" fill-opacity="0.6" stroke="white" stroke-opacity="0.6"/>
<path opacity="0.815686" d="M1.2144 15.6797L1.24911 15.9226H1.17969L1.2144 15.6797Z" fill="white" fill-opacity="0.6" stroke="white" stroke-opacity="0.6"/>
<path opacity="0.815686" d="M34.3238 15.6797L34.3585 15.9226H34.2891L34.3238 15.6797Z" fill="white" fill-opacity="0.6" stroke="white" stroke-opacity="0.6"/>
<path opacity="0.815686" d="M28.3594 15.8906L28.7412 15.9253L28.3594 15.96V15.8906Z" fill="white" fill-opacity="0.6" stroke="white" stroke-opacity="0.6"/>
<path opacity="0.815686" d="M6.63281 19.5703L7.22286 19.605L6.63281 19.6397V19.5703Z" fill="white" fill-opacity="0.6" stroke="white" stroke-opacity="0.6"/>
<path opacity="0.815686" d="M34.3238 19.5703L34.3585 19.8133H34.2891L34.3238 19.5703Z" fill="white" fill-opacity="0.6" stroke="white" stroke-opacity="0.6"/>
<path opacity="0.815686" d="M7.25346 19.7734L7.28817 19.947H7.21875L7.25346 19.7734Z" fill="white" fill-opacity="0.6" stroke="white" stroke-opacity="0.6"/>
<path opacity="0.815686" d="M28.2847 19.8438L28.3194 20.0173H28.25L28.2847 19.8438Z" fill="white" fill-opacity="0.6" stroke="white" stroke-opacity="0.6"/>
<path opacity="0.815686" d="M1.28471 19.9141L1.31942 20.157H1.25L1.28471 19.9141Z" fill="white" fill-opacity="0.6" stroke="white" stroke-opacity="0.6"/>
<path opacity="0.815686" d="M34.2613 20.125L34.296 20.2985H34.2266L34.2613 20.125Z" fill="white" fill-opacity="0.6" stroke="white" stroke-opacity="0.6"/>
<path opacity="0.815686" d="M1.35502 20.3984L1.38973 20.572H1.32031L1.35502 20.3984Z" fill="white" fill-opacity="0.6" stroke="white" stroke-opacity="0.6"/>
<path opacity="0.815686" d="M34.191 20.5391L34.2257 20.7126H34.1562L34.191 20.5391Z" fill="white" fill-opacity="0.6" stroke="white" stroke-opacity="0.6"/>
<path opacity="0.815686" d="M1.42533 20.8203L1.46004 20.9939H1.39062L1.42533 20.8203Z" fill="white" fill-opacity="0.6" stroke="white" stroke-opacity="0.6"/>
<path opacity="0.815686" d="M1.49565 21.1641L1.53036 21.3376H1.46094L1.49565 21.1641Z" fill="white" fill-opacity="0.6" stroke="white" stroke-opacity="0.6"/>
<path opacity="0.815686" d="M8.4375 23.0391L8.50692 23.1779" stroke="white" stroke-opacity="0.6"/>
<path opacity="0.815686" d="M27.1085 23.0391L27.0391 23.1779" stroke="white" stroke-opacity="0.6"/>
<path opacity="0.815686" d="M8.64062 23.3828L8.71004 23.5216" stroke="white" stroke-opacity="0.6"/>
<path opacity="0.815686" d="M26.8975 23.3828L26.8281 23.5216" stroke="white" stroke-opacity="0.6"/>
<path opacity="0.815686" d="M8.78125 23.5938L8.85067 23.7326" stroke="white" stroke-opacity="0.6"/>
<path opacity="0.815686" d="M26.7569 23.5938L26.6875 23.7326" stroke="white" stroke-opacity="0.6"/>
<path opacity="0.815686" d="M8.92188 23.8047L8.99129 23.9435" stroke="white" stroke-opacity="0.6"/>
<path opacity="0.815686" d="M26.6241 23.8047L26.5547 23.9435" stroke="white" stroke-opacity="0.6"/>
<path opacity="0.815686" d="M9.0625 24.0078L9.13192 24.1466" stroke="white" stroke-opacity="0.6"/>
<path opacity="0.815686" d="M26.4826 24.0078L26.3438 24.2161" stroke="white" stroke-opacity="0.6"/>
<path opacity="0.815686" d="M9.26562 24.2891L9.40446 24.4973" stroke="white" stroke-opacity="0.6"/>
<path opacity="0.815686" d="M26.2716 24.2891L26.1328 24.4973" stroke="white" stroke-opacity="0.6"/>
<path opacity="0.815686" d="M9.54688 24.6328L9.82455 24.9799" stroke="white" stroke-opacity="0.6"/>
<path opacity="0.815686" d="M25.9964 24.6328L25.7188 24.9799" stroke="white" stroke-opacity="0.6"/>
<path opacity="0.815686" d="M10.5859 25.6797L10.8636 26.0268" stroke="white" stroke-opacity="0.6"/>
<path opacity="0.815686" d="M24.9574 25.6797L24.6797 26.0268" stroke="white" stroke-opacity="0.6"/>
<path opacity="0.815686" d="M3.15625 25.75L3.22567 25.8888" stroke="white" stroke-opacity="0.6"/>
<path opacity="0.815686" d="M32.3116 25.8828L32.2422 26.0216" stroke="white" stroke-opacity="0.6"/>
<path opacity="0.815686" d="M11.0703 26.0938L11.2091 26.302" stroke="white" stroke-opacity="0.6"/>
<path opacity="0.815686" d="M24.467 26.0938L24.3281 26.302" stroke="white" stroke-opacity="0.6"/>
<path opacity="0.815686" d="M3.4375 26.2344L3.50692 26.3732" stroke="white" stroke-opacity="0.6"/>
<path opacity="0.815686" d="M11.3516 26.3047L11.4904 26.5129" stroke="white" stroke-opacity="0.6"/>
<path opacity="0.815686" d="M24.1241 26.3672L24.0547 26.506" stroke="white" stroke-opacity="0.6"/>
<path opacity="0.815686" d="M11.625 26.5078L11.6944 26.6466" stroke="white" stroke-opacity="0.6"/>
<path opacity="0.815686" d="M23.9132 26.5078L23.8438 26.6466" stroke="white" stroke-opacity="0.6"/>
<path opacity="0.815686" d="M3.64062 26.5781L3.71004 26.717" stroke="white" stroke-opacity="0.6"/>
<path opacity="0.815686" d="M31.8975 26.5781L31.8281 26.717" stroke="white" stroke-opacity="0.6"/>
<path opacity="0.815686" d="M11.8359 26.6484L11.9054 26.7873" stroke="white" stroke-opacity="0.6"/>
<path opacity="0.815686" d="M23.7022 26.6484L23.6328 26.7873" stroke="white" stroke-opacity="0.6"/>
<path opacity="0.815686" d="M3.78125 26.7891L3.85067 26.9279" stroke="white" stroke-opacity="0.6"/>
<path opacity="0.815686" d="M12.0469 26.7891L12.1163 26.9279" stroke="white" stroke-opacity="0.6"/>
<path opacity="0.815686" d="M23.4991 26.7891L23.4297 26.9279" stroke="white" stroke-opacity="0.6"/>
<path opacity="0.815686" d="M3.92188 26.9922L3.99129 27.131" stroke="white" stroke-opacity="0.6"/>
<path opacity="0.815686" d="M12.3906 26.9922L12.46 27.131" stroke="white" stroke-opacity="0.6"/>
<path opacity="0.815686" d="M23.1475 26.9922L23.0781 27.131" stroke="white" stroke-opacity="0.6"/>
<path opacity="0.815686" d="M31.6163 26.9922L31.5469 27.131" stroke="white" stroke-opacity="0.6"/>
<path opacity="0.815686" d="M4.0625 27.2031L4.13192 27.342" stroke="white" stroke-opacity="0.6"/>
<path opacity="0.815686" d="M31.4835 27.2031L31.4141 27.342" stroke="white" stroke-opacity="0.6"/>
<path opacity="0.815686" d="M4.20312 27.4141L4.34196 27.6223" stroke="white" stroke-opacity="0.6"/>
<path opacity="0.815686" d="M31.3429 27.4141L31.2734 27.5529" stroke="white" stroke-opacity="0.6"/>
<path opacity="0.815686" d="M4.40625 27.6875L4.54509 27.8958" stroke="white" stroke-opacity="0.6"/>
<path opacity="0.815686" d="M31.1319 27.6875L31.0625 27.8263" stroke="white" stroke-opacity="0.6"/>
<path opacity="0.815686" d="M4.61719 27.9688L4.82544 28.2464" stroke="white" stroke-opacity="0.6"/>
<path opacity="0.815686" d="M30.9279 27.9688L30.7891 28.177" stroke="white" stroke-opacity="0.6"/>
<path opacity="0.815686" d="M15.5859 28.2422L15.7595 28.2769L15.5859 28.3116V28.2422Z" fill="white" fill-opacity="0.6" stroke="white" stroke-opacity="0.6"/>
<path opacity="0.815686" d="M19.8203 28.2422L19.9939 28.2769L19.8203 28.3116V28.2422Z" fill="white" fill-opacity="0.6" stroke="white" stroke-opacity="0.6"/>
<path opacity="0.815686" d="M19.6128 28.3125L19.6475 28.9025H19.5781L19.6128 28.3125Z" fill="white" fill-opacity="0.6" stroke="white" stroke-opacity="0.6"/>
<path opacity="0.815686" d="M30.6458 28.3125L30.4375 28.5902" stroke="white" stroke-opacity="0.6"/>
<path opacity="0.815686" d="M4.96094 28.3828L5.09977 28.5911" stroke="white" stroke-opacity="0.6"/>
<path opacity="0.815686" d="M30.2321 28.7969L28.8438 30.2546" stroke="white" stroke-opacity="0.6"/>
<path opacity="0.815686" d="M5.38281 28.8672L6.70175 30.2555" stroke="white" stroke-opacity="0.6"/>
<path opacity="0.815686" d="M28.6379 30.3281L28.4297 30.6058" stroke="white" stroke-opacity="0.6"/>
<path opacity="0.815686" d="M6.97656 30.3984L7.1154 30.6067" stroke="white" stroke-opacity="0.6"/>
<path opacity="0.815686" d="M28.2161 30.6719L28.0078 30.9495" stroke="white" stroke-opacity="0.6"/>
<path opacity="0.815686" d="M7.39062 30.7422L7.52946 30.9504" stroke="white" stroke-opacity="0.6"/>
<path opacity="0.815686" d="M7.67188 30.9531L7.81071 31.1614" stroke="white" stroke-opacity="0.6"/>
<path opacity="0.815686" d="M27.8732 30.9531L27.7344 31.1614" stroke="white" stroke-opacity="0.6"/>
<path opacity="0.815686" d="M7.94531 31.1641L8.08415 31.3723" stroke="white" stroke-opacity="0.6"/>
<path opacity="0.815686" d="M27.592 31.1641L27.4531 31.3723" stroke="white" stroke-opacity="0.6"/>
<path opacity="0.815686" d="M8.22656 31.3672L8.29598 31.506" stroke="white" stroke-opacity="0.6"/>
<path opacity="0.815686" d="M27.3194 31.3672L27.25 31.506" stroke="white" stroke-opacity="0.6"/>
<path opacity="0.815686" d="M8.4375 31.5078L8.50692 31.6466" stroke="white" stroke-opacity="0.6"/>
<path opacity="0.815686" d="M27.1085 31.5078L27.0391 31.6466" stroke="white" stroke-opacity="0.6"/>
<path opacity="0.815686" d="M8.64062 31.6484L8.71004 31.7873" stroke="white" stroke-opacity="0.6"/>
<path opacity="0.815686" d="M26.8975 31.6484L26.8281 31.7873" stroke="white" stroke-opacity="0.6"/>
<path opacity="0.815686" d="M8.85156 31.7891L8.92098 31.9279" stroke="white" stroke-opacity="0.6"/>
<path opacity="0.815686" d="M26.6944 31.7891L26.625 31.9279" stroke="white" stroke-opacity="0.6"/>
<path opacity="0.815686" d="M26.3429 31.9922L26.2734 32.131" stroke="white" stroke-opacity="0.6"/>
<path opacity="0.815686" d="M9.54688 32.2031L9.61629 32.342" stroke="white" stroke-opacity="0.6"/>
<path opacity="0.815686" d="M25.8585 32.2734L25.7891 32.4123" stroke="white" stroke-opacity="0.6"/>
<path opacity="0.815686" d="M21.2109 34.0078L21.3845 34.0425L21.2109 34.0772V34.0078Z" fill="white" fill-opacity="0.6" stroke="white" stroke-opacity="0.6"/>
<path opacity="0.815686" d="M20.8594 34.0781L21.0329 34.1128L20.8594 34.1475V34.0781Z" fill="white" fill-opacity="0.6" stroke="white" stroke-opacity="0.6"/>
<path opacity="0.815686" d="M14.8203 34.1484L14.9939 34.1831L14.8203 34.2179V34.1484Z" fill="white" fill-opacity="0.6" stroke="white" stroke-opacity="0.6"/>
<path opacity="0.815686" d="M15.2344 34.2188L15.4079 34.2535L15.2344 34.2882V34.2188Z" fill="white" fill-opacity="0.6" stroke="white" stroke-opacity="0.6"/>
<path opacity="0.815686" d="M19.9609 34.2188L20.2039 34.2535L19.9609 34.2882V34.2188Z" fill="white" fill-opacity="0.6" stroke="white" stroke-opacity="0.6"/>
<path opacity="0.815686" d="M15.7266 34.2812L15.9695 34.316L15.7266 34.3507V34.2812Z" fill="white" fill-opacity="0.6" stroke="white" stroke-opacity="0.6"/>
<path d="M15.4465 1.24219H15.9324L15.9672 1.2769V6.76089L15.8977 7.2121H15.5854L14.1276 7.62861L11.4897 8.94754L10.7261 8.11453C10.6243 8.15155 10.5896 8.11684 10.622 8.0104L10.4137 7.90628V7.80215L7.35938 4.74778C8.52559 3.78519 9.8561 2.98688 11.3509 2.35287L13.6417 1.58928L15.4465 1.24219Z" fill="white" fill-opacity="0.6" stroke="white" stroke-opacity="0.6"/>
<path d="M19.5781 1.24219L20.9318 1.38102L22.3895 1.72811L24.3332 2.42229C26.4343 3.35248 28.2276 4.59043 29.7131 6.13613C31.1153 7.55688 32.2492 9.24604 33.1146 11.2036L33.8087 13.1473L34.1558 14.6051L34.2947 15.9587H28.776L28.3247 15.8893C28.1304 14.5657 27.737 13.4204 27.1446 12.4531C26.4875 11.3101 25.666 10.3266 24.6803 9.50288C23.889 8.83647 22.9865 8.28113 21.973 7.83686C21.2418 7.50828 20.4435 7.27689 19.5781 7.14268V1.24219Z" fill="white" fill-opacity="0.6" stroke="white" stroke-opacity="0.6"/>
<path d="M4.82501 7.35156L9.02477 11.5513L8.88594 11.6902C8.0483 12.8749 7.46982 14.298 7.1505 15.9593H1.28471L1.25 15.9246V15.4387L1.59709 13.6339L2.4301 11.2042C3.0456 9.73721 3.8439 8.45299 4.82501 7.35156Z" fill="white" fill-opacity="0.6" stroke="white" stroke-opacity="0.6"/>
<path d="M1.25 19.5703H6.56045L6.62986 19.6397H7.21991C7.41428 20.9633 7.80765 22.1087 8.40001 23.0759C9.0618 24.2236 9.88324 25.207 10.8643 26.0262C11.6557 26.6926 12.5581 27.2479 13.5716 27.6922L14.7517 28.1087L15.8624 28.3169L15.9665 28.4211V34.2521L15.9318 34.2868H15.4459L13.1551 33.8009L11.9056 33.3844L9.68424 32.3432C7.92566 31.3482 6.41004 30.1102 5.13739 28.6293C4.11926 27.4492 3.26311 26.1071 2.56893 24.6031L1.73592 22.3123L1.38884 20.7851L1.25 19.5703Z" fill="white" fill-opacity="0.6" stroke="white" stroke-opacity="0.6"/>
<path d="M28.3942 19.5703H34.2599L34.2947 19.605V20.0909L33.8087 22.3817L33.3922 23.6312L32.351 25.8526C31.3745 27.5834 30.1597 29.0759 28.7065 30.33C27.5126 31.3806 26.1473 32.2599 24.6109 32.9679L22.3201 33.8009L20.4458 34.2174L19.5781 34.2868V28.9764L19.6475 28.907V28.3169C20.9711 28.1226 22.1165 27.7292 23.0837 27.1368C24.2314 26.4797 25.2148 25.6582 26.034 24.6725C26.7004 23.8811 27.2557 22.9787 27.7 21.9652C28.0286 21.234 28.26 20.4357 28.3942 19.5703Z" fill="white" fill-opacity="0.6" stroke="white" stroke-opacity="0.6"/>
</g>
<defs>
<clipPath id="clip0_14699_3347">
<rect width="35.5418" height="35.5418" fill="white" transform="translate(0 -0.0078125)"/>
</clipPath>
</defs>
</svg>
