<svg width="36" height="36" viewBox="0 0 36 36" fill="none" xmlns="http://www.w3.org/2000/svg">
<g clip-path="url(#clip0_14681_2053)">
<path opacity="0.815686" d="M16.1797 1.54688L16.4226 1.58158L16.1797 1.61629V1.54688Z" fill="white" fill-opacity="0.6" stroke="white" stroke-opacity="0.6"/>
<path opacity="0.815686" d="M20.0625 1.54688L20.3055 1.58158L20.0625 1.61629V1.54688Z" fill="white" fill-opacity="0.6" stroke="white" stroke-opacity="0.6"/>
<path opacity="0.815686" d="M15.6875 1.61719L15.861 1.6519L15.6875 1.68661V1.61719Z" fill="white" fill-opacity="0.6" stroke="white" stroke-opacity="0.6"/>
<path opacity="0.815686" d="M20.6172 1.61719L20.7907 1.6519L20.6172 1.68661V1.61719Z" fill="white" fill-opacity="0.6" stroke="white" stroke-opacity="0.6"/>
<path opacity="0.815686" d="M15.2031 1.6875L15.3767 1.72221L15.2031 1.75692V1.6875Z" fill="white" fill-opacity="0.6" stroke="white" stroke-opacity="0.6"/>
<path opacity="0.815686" d="M21.0391 1.6875L21.2126 1.72221L21.0391 1.75692V1.6875Z" fill="white" fill-opacity="0.6" stroke="white" stroke-opacity="0.6"/>
<path opacity="0.815686" d="M10.2725 3.42188L10.2031 3.56071" stroke="white" stroke-opacity="0.6"/>
<path opacity="0.815686" d="M26.3828 3.5625L26.4522 3.70134" stroke="white" stroke-opacity="0.6"/>
<path opacity="0.815686" d="M9.78817 3.70312L9.71875 3.84196" stroke="white" stroke-opacity="0.6"/>
<path opacity="0.815686" d="M26.8672 3.83594L26.9366 3.97477" stroke="white" stroke-opacity="0.6"/>
<path opacity="0.815686" d="M27.0781 3.97656L27.1475 4.1154" stroke="white" stroke-opacity="0.6"/>
<path opacity="0.815686" d="M9.23348 4.04688L9.16406 4.18571" stroke="white" stroke-opacity="0.6"/>
<path opacity="0.815686" d="M9.02254 4.1875L8.95312 4.32634" stroke="white" stroke-opacity="0.6"/>
<path opacity="0.815686" d="M27.4922 4.25781L27.5616 4.39665" stroke="white" stroke-opacity="0.6"/>
<path opacity="0.815686" d="M8.81942 4.32031L8.75 4.45915" stroke="white" stroke-opacity="0.6"/>
<path opacity="0.815686" d="M27.7031 4.39062L27.7725 4.52946" stroke="white" stroke-opacity="0.6"/>
<path opacity="0.815686" d="M8.60848 4.46094L8.53906 4.59977" stroke="white" stroke-opacity="0.6"/>
<path opacity="0.815686" d="M27.9062 4.53125L27.9757 4.67009" stroke="white" stroke-opacity="0.6"/>
<path opacity="0.815686" d="M8.33504 4.67188L8.26562 4.81071" stroke="white" stroke-opacity="0.6"/>
<path opacity="0.815686" d="M28.1875 4.74219L28.2569 4.88102" stroke="white" stroke-opacity="0.6"/>
<path opacity="0.815686" d="M8.0529 4.88281L7.91406 5.09107" stroke="white" stroke-opacity="0.6"/>
<path opacity="0.815686" d="M28.4609 4.94531L28.5998 5.15357" stroke="white" stroke-opacity="0.6"/>
<path opacity="0.815686" d="M7.84375 5.15625L10.8287 8.21062" stroke="white" stroke-opacity="0.6"/>
<path opacity="0.815686" d="M28.8125 5.22656L29.0208 5.50423" stroke="white" stroke-opacity="0.6"/>
<path opacity="0.815686" d="M29.2969 5.64062L29.8522 6.26538" stroke="white" stroke-opacity="0.6"/>
<path opacity="0.815686" d="M30.1953 6.54688L30.6812 7.10222" stroke="white" stroke-opacity="0.6"/>
<path opacity="0.815686" d="M16.3863 7.17188L16.421 7.55367H16.3516L16.3863 7.17188Z" fill="white" fill-opacity="0.6" stroke="white" stroke-opacity="0.6"/>
<path opacity="0.815686" d="M30.8906 7.3125L31.0989 7.59017" stroke="white" stroke-opacity="0.6"/>
<path opacity="0.815686" d="M16.0391 7.58594L16.2126 7.62065L16.0391 7.65536V7.58594Z" fill="white" fill-opacity="0.6" stroke="white" stroke-opacity="0.6"/>
<path opacity="0.815686" d="M20.3438 7.58594L20.5173 7.62065L20.3438 7.65536V7.58594Z" fill="white" fill-opacity="0.6" stroke="white" stroke-opacity="0.6"/>
<path opacity="0.815686" d="M5.21004 7.72656L5.14062 7.8654" stroke="white" stroke-opacity="0.6"/>
<path opacity="0.815686" d="M31.2422 7.72656L31.381 7.93482" stroke="white" stroke-opacity="0.6"/>
<path opacity="0.815686" d="M4.99821 8L4.85938 8.20825" stroke="white" stroke-opacity="0.6"/>
<path opacity="0.815686" d="M31.5156 8.07031L31.585 8.20915" stroke="white" stroke-opacity="0.6"/>
<path opacity="0.815686" d="M4.79509 8.28125L4.65625 8.4895" stroke="white" stroke-opacity="0.6"/>
<path opacity="0.815686" d="M10.9688 8.28125L11.0382 8.42009" stroke="white" stroke-opacity="0.6"/>
<path opacity="0.815686" d="M31.7266 8.35156L31.796 8.4904" stroke="white" stroke-opacity="0.6"/>
<path opacity="0.815686" d="M11.1797 8.49219L11.3185 8.70044" stroke="white" stroke-opacity="0.6"/>
<path opacity="0.815686" d="M4.58504 8.55469L4.51562 8.69352" stroke="white" stroke-opacity="0.6"/>
<path opacity="0.815686" d="M31.8672 8.55469L31.9366 8.69352" stroke="white" stroke-opacity="0.6"/>
<path opacity="0.815686" d="M12.9132 8.76562L12.8438 8.90446" stroke="white" stroke-opacity="0.6"/>
<path opacity="0.815686" d="M23.5312 8.76562L23.6007 8.90446" stroke="white" stroke-opacity="0.6"/>
<path opacity="0.815686" d="M32 8.76562L32.0694 8.90446" stroke="white" stroke-opacity="0.6"/>
<path opacity="0.815686" d="M12.5694 8.97656L12.5 9.1154" stroke="white" stroke-opacity="0.6"/>
<path opacity="0.815686" d="M23.8828 8.97656L23.9522 9.1154" stroke="white" stroke-opacity="0.6"/>
<path opacity="0.815686" d="M12.3585 9.11719L12.2891 9.25602" stroke="white" stroke-opacity="0.6"/>
<path opacity="0.815686" d="M32.2812 9.17969L32.3507 9.31852" stroke="white" stroke-opacity="0.6"/>
<path opacity="0.815686" d="M24.2969 9.25L24.3663 9.38884" stroke="white" stroke-opacity="0.6"/>
<path opacity="0.815686" d="M4.03036 9.39062L3.96094 9.52946" stroke="white" stroke-opacity="0.6"/>
<path opacity="0.815686" d="M24.5078 9.39062L24.5772 9.52946" stroke="white" stroke-opacity="0.6"/>
<path opacity="0.815686" d="M32.4219 9.39062L32.4913 9.52946" stroke="white" stroke-opacity="0.6"/>
<path opacity="0.815686" d="M24.7812 9.60156L24.9201 9.80982" stroke="white" stroke-opacity="0.6"/>
<path opacity="0.815686" d="M3.81942 9.74219L3.75 9.88102" stroke="white" stroke-opacity="0.6"/>
<path opacity="0.815686" d="M25.1328 9.875L25.4105 10.2221" stroke="white" stroke-opacity="0.6"/>
<path opacity="0.815686" d="M32.6953 9.875L32.7647 10.0138" stroke="white" stroke-opacity="0.6"/>
<path opacity="0.815686" d="M3.47567 10.3672L3.40625 10.506" stroke="white" stroke-opacity="0.6"/>
<path opacity="0.815686" d="M3.19788 10.8516L3.23259 10.9557L3.12846 11.1292L3.09375 11.0251L3.19788 10.8516Z" fill="white" fill-opacity="0.6" stroke="white" stroke-opacity="0.6"/>
<path opacity="0.815686" d="M26.1719 10.9219L26.4495 11.269" stroke="white" stroke-opacity="0.6"/>
<path opacity="0.815686" d="M26.5859 11.4062L26.7248 11.6145" stroke="white" stroke-opacity="0.6"/>
<path opacity="0.815686" d="M26.7969 11.6797L26.9357 11.8879" stroke="white" stroke-opacity="0.6"/>
<path opacity="0.815686" d="M9.44442 11.9609L9.375 12.0998" stroke="white" stroke-opacity="0.6"/>
<path opacity="0.815686" d="M27.0078 11.9609L27.0772 12.0998" stroke="white" stroke-opacity="0.6"/>
<path opacity="0.815686" d="M9.30379 12.1719L9.23438 12.3107" stroke="white" stroke-opacity="0.6"/>
<path opacity="0.815686" d="M27.1406 12.1719L27.21 12.3107" stroke="white" stroke-opacity="0.6"/>
<path opacity="0.815686" d="M9.16317 12.375L9.09375 12.5138" stroke="white" stroke-opacity="0.6"/>
<path opacity="0.815686" d="M27.2812 12.375L27.3507 12.5138" stroke="white" stroke-opacity="0.6"/>
<path opacity="0.815686" d="M8.96004 12.7266L8.89062 12.8654" stroke="white" stroke-opacity="0.6"/>
<path opacity="0.815686" d="M27.4922 12.7266L27.5616 12.8654" stroke="white" stroke-opacity="0.6"/>
<path opacity="0.815686" d="M2.01127 14.1094L2.04598 14.2829H1.97656L2.01127 14.1094Z" fill="white" fill-opacity="0.6" stroke="white" stroke-opacity="0.6"/>
<path opacity="0.815686" d="M1.87846 14.7344L1.91317 14.9079H1.84375L1.87846 14.7344Z" fill="white" fill-opacity="0.6" stroke="white" stroke-opacity="0.6"/>
<path opacity="0.815686" d="M1.80815 15.0859L1.84286 15.2595H1.77344L1.80815 15.0859Z" fill="white" fill-opacity="0.6" stroke="white" stroke-opacity="0.6"/>
<path opacity="0.815686" d="M34.6441 15.1562L34.6788 15.3298H34.6094L34.6441 15.1562Z" fill="white" fill-opacity="0.6" stroke="white" stroke-opacity="0.6"/>
<path opacity="0.815686" d="M1.73783 15.5703L1.77254 15.7439H1.70312L1.73783 15.5703Z" fill="white" fill-opacity="0.6" stroke="white" stroke-opacity="0.6"/>
<path opacity="0.815686" d="M34.7144 15.5703L34.7491 15.7439H34.6797L34.7144 15.5703Z" fill="white" fill-opacity="0.6" stroke="white" stroke-opacity="0.6"/>
<path opacity="0.815686" d="M28.7378 15.9141L28.7725 16.0876H28.7031L28.7378 15.9141Z" fill="white" fill-opacity="0.6" stroke="white" stroke-opacity="0.6"/>
<path opacity="0.815686" d="M1.66752 16.0547L1.70223 16.2976H1.63281L1.66752 16.0547Z" fill="white" fill-opacity="0.6" stroke="white" stroke-opacity="0.6"/>
<path opacity="0.815686" d="M34.7769 16.0547L34.8116 16.2976H34.7422L34.7769 16.0547Z" fill="white" fill-opacity="0.6" stroke="white" stroke-opacity="0.6"/>
<path opacity="0.815686" d="M28.8125 16.2656L29.1943 16.3003L28.8125 16.335V16.2656Z" fill="white" fill-opacity="0.6" stroke="white" stroke-opacity="0.6"/>
<path opacity="0.815686" d="M7.08594 19.9453L7.67599 19.98L7.08594 20.0147V19.9453Z" fill="white" fill-opacity="0.6" stroke="white" stroke-opacity="0.6"/>
<path opacity="0.815686" d="M34.7769 19.9453L34.8116 20.1883H34.7422L34.7769 19.9453Z" fill="white" fill-opacity="0.6" stroke="white" stroke-opacity="0.6"/>
<path opacity="0.815686" d="M7.70658 20.1484L7.74129 20.322H7.67188L7.70658 20.1484Z" fill="white" fill-opacity="0.6" stroke="white" stroke-opacity="0.6"/>
<path opacity="0.815686" d="M28.7378 20.2188L28.7725 20.3923H28.7031L28.7378 20.2188Z" fill="white" fill-opacity="0.6" stroke="white" stroke-opacity="0.6"/>
<path opacity="0.815686" d="M1.73783 20.2891L1.77254 20.532H1.70312L1.73783 20.2891Z" fill="white" fill-opacity="0.6" stroke="white" stroke-opacity="0.6"/>
<path opacity="0.815686" d="M34.7144 20.5L34.7491 20.6735H34.6797L34.7144 20.5Z" fill="white" fill-opacity="0.6" stroke="white" stroke-opacity="0.6"/>
<path opacity="0.815686" d="M1.80815 20.7734L1.84286 20.947H1.77344L1.80815 20.7734Z" fill="white" fill-opacity="0.6" stroke="white" stroke-opacity="0.6"/>
<path opacity="0.815686" d="M34.6441 20.9141L34.6788 21.0876H34.6094L34.6441 20.9141Z" fill="white" fill-opacity="0.6" stroke="white" stroke-opacity="0.6"/>
<path opacity="0.815686" d="M1.87846 21.1953L1.91317 21.3689H1.84375L1.87846 21.1953Z" fill="white" fill-opacity="0.6" stroke="white" stroke-opacity="0.6"/>
<path opacity="0.815686" d="M1.94877 21.5391L1.98348 21.7126H1.91406L1.94877 21.5391Z" fill="white" fill-opacity="0.6" stroke="white" stroke-opacity="0.6"/>
<path opacity="0.815686" d="M8.89062 23.4141L8.96004 23.5529" stroke="white" stroke-opacity="0.6"/>
<path opacity="0.815686" d="M27.5616 23.4141L27.4922 23.5529" stroke="white" stroke-opacity="0.6"/>
<path opacity="0.815686" d="M9.09375 23.7578L9.16317 23.8966" stroke="white" stroke-opacity="0.6"/>
<path opacity="0.815686" d="M27.3507 23.7578L27.2812 23.8966" stroke="white" stroke-opacity="0.6"/>
<path opacity="0.815686" d="M9.23438 23.9688L9.30379 24.1076" stroke="white" stroke-opacity="0.6"/>
<path opacity="0.815686" d="M27.21 23.9688L27.1406 24.1076" stroke="white" stroke-opacity="0.6"/>
<path opacity="0.815686" d="M9.375 24.1797L9.44442 24.3185" stroke="white" stroke-opacity="0.6"/>
<path opacity="0.815686" d="M27.0772 24.1797L27.0078 24.3185" stroke="white" stroke-opacity="0.6"/>
<path opacity="0.815686" d="M9.51562 24.3828L9.58504 24.5216" stroke="white" stroke-opacity="0.6"/>
<path opacity="0.815686" d="M26.9357 24.3828L26.7969 24.5911" stroke="white" stroke-opacity="0.6"/>
<path opacity="0.815686" d="M9.71875 24.6641L9.85759 24.8723" stroke="white" stroke-opacity="0.6"/>
<path opacity="0.815686" d="M26.7248 24.6641L26.5859 24.8723" stroke="white" stroke-opacity="0.6"/>
<path opacity="0.815686" d="M10 25.0078L10.2777 25.3549" stroke="white" stroke-opacity="0.6"/>
<path opacity="0.815686" d="M26.4495 25.0078L26.1719 25.3549" stroke="white" stroke-opacity="0.6"/>
<path opacity="0.815686" d="M11.0391 26.0547L11.3167 26.4018" stroke="white" stroke-opacity="0.6"/>
<path opacity="0.815686" d="M25.4105 26.0547L25.1328 26.4018" stroke="white" stroke-opacity="0.6"/>
<path opacity="0.815686" d="M3.60938 26.125L3.67879 26.2638" stroke="white" stroke-opacity="0.6"/>
<path opacity="0.815686" d="M32.7647 26.2578L32.6953 26.3966" stroke="white" stroke-opacity="0.6"/>
<path opacity="0.815686" d="M11.5234 26.4688L11.6623 26.677" stroke="white" stroke-opacity="0.6"/>
<path opacity="0.815686" d="M24.9201 26.4688L24.7812 26.677" stroke="white" stroke-opacity="0.6"/>
<path opacity="0.815686" d="M3.89062 26.6094L3.96004 26.7482" stroke="white" stroke-opacity="0.6"/>
<path opacity="0.815686" d="M11.8047 26.6797L11.9435 26.8879" stroke="white" stroke-opacity="0.6"/>
<path opacity="0.815686" d="M24.5772 26.7422L24.5078 26.881" stroke="white" stroke-opacity="0.6"/>
<path opacity="0.815686" d="M12.0781 26.8828L12.1475 27.0216" stroke="white" stroke-opacity="0.6"/>
<path opacity="0.815686" d="M24.3663 26.8828L24.2969 27.0216" stroke="white" stroke-opacity="0.6"/>
<path opacity="0.815686" d="M4.09375 26.9531L4.16317 27.092" stroke="white" stroke-opacity="0.6"/>
<path opacity="0.815686" d="M32.3507 26.9531L32.2812 27.092" stroke="white" stroke-opacity="0.6"/>
<path opacity="0.815686" d="M12.2891 27.0234L12.3585 27.1623" stroke="white" stroke-opacity="0.6"/>
<path opacity="0.815686" d="M24.1554 27.0234L24.0859 27.1623" stroke="white" stroke-opacity="0.6"/>
<path opacity="0.815686" d="M4.23438 27.1641L4.30379 27.3029" stroke="white" stroke-opacity="0.6"/>
<path opacity="0.815686" d="M12.5 27.1641L12.5694 27.3029" stroke="white" stroke-opacity="0.6"/>
<path opacity="0.815686" d="M23.9522 27.1641L23.8828 27.3029" stroke="white" stroke-opacity="0.6"/>
<path opacity="0.815686" d="M4.375 27.3672L4.44442 27.506" stroke="white" stroke-opacity="0.6"/>
<path opacity="0.815686" d="M12.8438 27.3672L12.9132 27.506" stroke="white" stroke-opacity="0.6"/>
<path opacity="0.815686" d="M23.6007 27.3672L23.5312 27.506" stroke="white" stroke-opacity="0.6"/>
<path opacity="0.815686" d="M32.0694 27.3672L32 27.506" stroke="white" stroke-opacity="0.6"/>
<path opacity="0.815686" d="M4.51562 27.5781L4.58504 27.717" stroke="white" stroke-opacity="0.6"/>
<path opacity="0.815686" d="M31.9366 27.5781L31.8672 27.717" stroke="white" stroke-opacity="0.6"/>
<path opacity="0.815686" d="M4.65625 27.7891L4.79509 27.9973" stroke="white" stroke-opacity="0.6"/>
<path opacity="0.815686" d="M31.796 27.7891L31.7266 27.9279" stroke="white" stroke-opacity="0.6"/>
<path opacity="0.815686" d="M4.85938 28.0625L4.99821 28.2708" stroke="white" stroke-opacity="0.6"/>
<path opacity="0.815686" d="M31.585 28.0625L31.5156 28.2013" stroke="white" stroke-opacity="0.6"/>
<path opacity="0.815686" d="M5.07031 28.3438L5.27857 28.6214" stroke="white" stroke-opacity="0.6"/>
<path opacity="0.815686" d="M31.381 28.3438L31.2422 28.552" stroke="white" stroke-opacity="0.6"/>
<path opacity="0.815686" d="M16.0391 28.6172L16.2126 28.6519L16.0391 28.6866V28.6172Z" fill="white" fill-opacity="0.6" stroke="white" stroke-opacity="0.6"/>
<path opacity="0.815686" d="M20.2734 28.6172L20.447 28.6519L20.2734 28.6866V28.6172Z" fill="white" fill-opacity="0.6" stroke="white" stroke-opacity="0.6"/>
<path opacity="0.815686" d="M20.066 28.6875L20.1007 29.2775H20.0312L20.066 28.6875Z" fill="white" fill-opacity="0.6" stroke="white" stroke-opacity="0.6"/>
<path opacity="0.815686" d="M31.0989 28.6875L30.8906 28.9652" stroke="white" stroke-opacity="0.6"/>
<path opacity="0.815686" d="M5.41406 28.7578L5.5529 28.9661" stroke="white" stroke-opacity="0.6"/>
<path opacity="0.815686" d="M30.6852 29.1719L29.2969 30.6296" stroke="white" stroke-opacity="0.6"/>
<path opacity="0.815686" d="M5.83594 29.2422L7.15487 30.6305" stroke="white" stroke-opacity="0.6"/>
<path opacity="0.815686" d="M29.0911 30.7031L28.8828 30.9808" stroke="white" stroke-opacity="0.6"/>
<path opacity="0.815686" d="M7.42969 30.7734L7.56852 30.9817" stroke="white" stroke-opacity="0.6"/>
<path opacity="0.815686" d="M28.6692 31.0469L28.4609 31.3245" stroke="white" stroke-opacity="0.6"/>
<path opacity="0.815686" d="M7.84375 31.1172L7.98259 31.3254" stroke="white" stroke-opacity="0.6"/>
<path opacity="0.815686" d="M8.125 31.3281L8.26384 31.5364" stroke="white" stroke-opacity="0.6"/>
<path opacity="0.815686" d="M28.3263 31.3281L28.1875 31.5364" stroke="white" stroke-opacity="0.6"/>
<path opacity="0.815686" d="M8.39844 31.5391L8.53727 31.7473" stroke="white" stroke-opacity="0.6"/>
<path opacity="0.815686" d="M28.0451 31.5391L27.9062 31.7473" stroke="white" stroke-opacity="0.6"/>
<path opacity="0.815686" d="M8.67969 31.7422L8.74911 31.881" stroke="white" stroke-opacity="0.6"/>
<path opacity="0.815686" d="M27.7725 31.7422L27.7031 31.881" stroke="white" stroke-opacity="0.6"/>
<path opacity="0.815686" d="M8.89062 31.8828L8.96004 32.0216" stroke="white" stroke-opacity="0.6"/>
<path opacity="0.815686" d="M27.5616 31.8828L27.4922 32.0216" stroke="white" stroke-opacity="0.6"/>
<path opacity="0.815686" d="M9.09375 32.0234L9.16317 32.1623" stroke="white" stroke-opacity="0.6"/>
<path opacity="0.815686" d="M27.3507 32.0234L27.2812 32.1623" stroke="white" stroke-opacity="0.6"/>
<path opacity="0.815686" d="M9.30469 32.1641L9.37411 32.3029" stroke="white" stroke-opacity="0.6"/>
<path opacity="0.815686" d="M27.1475 32.1641L27.0781 32.3029" stroke="white" stroke-opacity="0.6"/>
<path opacity="0.815686" d="M26.796 32.3672L26.7266 32.506" stroke="white" stroke-opacity="0.6"/>
<path opacity="0.815686" d="M10 32.5781L10.0694 32.717" stroke="white" stroke-opacity="0.6"/>
<path opacity="0.815686" d="M26.3116 32.6484L26.2422 32.7873" stroke="white" stroke-opacity="0.6"/>
<path opacity="0.815686" d="M21.6641 34.3828L21.8376 34.4175L21.6641 34.4522V34.3828Z" fill="white" fill-opacity="0.6" stroke="white" stroke-opacity="0.6"/>
<path opacity="0.815686" d="M21.3125 34.4531L21.486 34.4878L21.3125 34.5225V34.4531Z" fill="white" fill-opacity="0.6" stroke="white" stroke-opacity="0.6"/>
<path opacity="0.815686" d="M15.2734 34.5234L15.447 34.5581L15.2734 34.5929V34.5234Z" fill="white" fill-opacity="0.6" stroke="white" stroke-opacity="0.6"/>
<path opacity="0.815686" d="M15.6875 34.5938L15.861 34.6285L15.6875 34.6632V34.5938Z" fill="white" fill-opacity="0.6" stroke="white" stroke-opacity="0.6"/>
<path opacity="0.815686" d="M20.4141 34.5938L20.657 34.6285L20.4141 34.6632V34.5938Z" fill="white" fill-opacity="0.6" stroke="white" stroke-opacity="0.6"/>
<path opacity="0.815686" d="M16.1797 34.6562L16.4226 34.691L16.1797 34.7257V34.6562Z" fill="white" fill-opacity="0.6" stroke="white" stroke-opacity="0.6"/>
<path d="M15.8997 1.61719H16.3856L16.4203 1.6519V7.13589L16.3509 7.5871H16.0385L14.5807 8.00361L11.9428 9.32254L11.1793 8.48953C11.0774 8.52655 11.0427 8.49184 11.0751 8.3854L10.8669 8.28128V8.17715L7.8125 5.12278C8.97872 4.16019 10.3092 3.36188 11.804 2.72787L14.0948 1.96428L15.8997 1.61719Z" fill="white" fill-opacity="0.6" stroke="white" stroke-opacity="0.6"/>
<path d="M20.0312 1.61719L21.3849 1.75602L22.8427 2.10311L24.7864 2.79729C26.8874 3.72748 28.6807 4.96543 30.1662 6.51113C31.5685 7.93188 32.7023 9.62104 33.5677 11.5786L34.2619 13.5223L34.6089 14.9801L34.7478 16.3337H29.2291L28.7779 16.2643C28.5835 14.9407 28.1901 13.7954 27.5978 12.8281C26.9406 11.6851 26.1192 10.7016 25.1334 9.87788C24.3421 9.21147 23.4397 8.65613 22.4262 8.21186C21.695 7.88328 20.8967 7.65189 20.0312 7.51768V1.61719Z" fill="white" fill-opacity="0.6" stroke="white" stroke-opacity="0.6"/>
<path d="M5.27813 7.72656L9.4779 11.9263L9.33906 12.0652C8.50142 13.2499 7.92294 14.673 7.60362 16.3343H1.73783L1.70312 16.2996V15.8137L2.05021 14.0089L2.88322 11.5792C3.49873 10.1122 4.29703 8.82799 5.27813 7.72656Z" fill="white" fill-opacity="0.6" stroke="white" stroke-opacity="0.6"/>
<path d="M1.70312 19.9453H7.01357L7.08299 20.0147H7.67304C7.86741 21.3383 8.26078 22.4837 8.85314 23.4509C9.51492 24.5986 10.3364 25.582 11.3175 26.4012C12.1088 27.0676 13.0113 27.6229 14.0248 28.0672L15.2049 28.4837L16.3155 28.6919L16.4197 28.7961V34.6271L16.3849 34.6618H15.899L13.6082 34.1759L12.3587 33.7594L10.1374 32.7182C8.37879 31.7232 6.86317 30.4852 5.59051 29.0043C4.57239 27.8242 3.71624 26.4821 3.02206 24.9781L2.18905 22.6873L1.84196 21.1601L1.70312 19.9453Z" fill="white" fill-opacity="0.6" stroke="white" stroke-opacity="0.6"/>
<path d="M28.8473 19.9453H34.7131L34.7478 19.98V20.4659L34.2619 22.7567L33.8454 24.0062L32.8041 26.2276C31.8276 27.9584 30.6128 29.4509 29.1597 30.705C27.9657 31.7556 26.6005 32.6349 25.064 33.3429L22.7732 34.1759L20.899 34.5924L20.0312 34.6618V29.3514L20.1007 29.282V28.6919C21.4242 28.4976 22.5696 28.1042 23.5368 27.5118C24.6845 26.8547 25.668 26.0332 26.4871 25.0475C27.1535 24.2561 27.7088 23.3537 28.1531 22.3402C28.4817 21.609 28.7131 20.8107 28.8473 19.9453Z" fill="white" fill-opacity="0.6" stroke="white" stroke-opacity="0.6"/>
</g>
<defs>
<clipPath id="clip0_14681_2053">
<rect width="35.5418" height="35.5418" fill="white" transform="translate(0.453125 0.367188)"/>
</clipPath>
</defs>
</svg>
