<svg width="28" height="32" viewBox="0 0 28 32" fill="none" xmlns="http://www.w3.org/2000/svg">
<g clip-path="url(#clip0_14681_2247)">
<path opacity="0.968627" d="M12.4841 0.296875H15.2377L15.2917 0.351345H16.2635L16.3175 0.405815L17.5053 0.460286L17.5593 0.514756L18.4232 0.569226L20.0969 0.896047H20.3669L21.9326 1.27734C23.0052 1.57511 23.9951 1.9564 24.9021 2.42121C25.7228 2.83156 26.4157 3.36718 26.9808 4.02808L27.4667 4.79067L27.6827 5.55325V26.6332C27.4595 27.6064 27.0006 28.3418 26.3059 28.8393C25.6544 29.3622 24.9165 29.7979 24.0923 30.1466L22.4725 30.7457L20.3669 31.2904H20.0969L18.4232 31.6173L17.0194 31.7262L16.9654 31.7807H16.3175L16.2635 31.8351H15.2917L15.2377 31.8896H12.4841L12.4301 31.8351H11.4583L11.4043 31.7807H10.7564L10.7024 31.7262H10.2165L10.1625 31.6717L8.92066 31.5628L6.86898 31.1815L5.24924 30.7457C4.227 30.4334 3.29115 30.034 2.44168 29.5474C1.77939 29.1806 1.21248 28.7176 0.740952 28.1584C0.381009 27.7771 0.147045 27.2687 0.0390625 26.6332V5.55325L0.147045 5.06302L0.363011 4.57279C0.647366 4.09708 0.998311 3.68855 1.41585 3.34721L3.03559 2.31227L4.43937 1.7131L5.78915 1.27734L6.86898 1.00499L8.92066 0.623696L10.1625 0.514756L10.2165 0.460286H10.7024L10.7564 0.405815L12.4301 0.351345L12.4841 0.296875ZM12.1332 1.54969L12.0792 1.60416H11.2693L11.2153 1.65863H10.6754L10.6214 1.7131L9.27161 1.82204L7.97581 2.09439H7.70585L6.1401 2.47568C5.27624 2.69356 4.48436 2.98407 3.76447 3.34721L2.25271 4.2732C1.78479 4.56371 1.46084 4.99947 1.28087 5.58049V6.17966C1.35286 6.50648 1.49683 6.77883 1.7128 6.99671C2.10874 7.43247 2.59466 7.79561 3.17057 8.08612L4.8443 8.8487L6.19409 9.28446L9.05564 9.88363L10.2974 9.99257L10.3514 10.047H10.8374L10.8913 10.1015L12.5111 10.156L12.5651 10.2105H15.2107L15.2647 10.156L16.8844 10.1015L16.9384 10.047H17.4783L17.5323 9.99257L18.7201 9.88363L20.2319 9.61128L22.1216 9.12105L23.4714 8.63082C24.2632 8.304 24.9831 7.88639 25.631 7.378C25.991 7.0875 26.2609 6.68805 26.4409 6.17966V5.58049L26.063 4.87237L25.3071 4.10979L24.0113 3.34721L22.0136 2.58462L20.5558 2.20333L18.5041 1.82204L17.1544 1.7131L17.1004 1.65863H16.5605L16.5065 1.60416H15.6966L15.6426 1.54969H12.1332ZM1.33486 8.24953L1.28087 12.9884C1.35286 13.3153 1.49683 13.5876 1.7128 13.8055C2.10874 14.2413 2.59466 14.6044 3.17057 14.8949L4.41237 15.4941L5.81615 15.9843L7.27392 16.3656L8.6777 16.6379L9.75753 16.7469L9.81152 16.8014H10.2435L10.2974 16.8558H10.7834L10.8374 16.9103L12.4031 16.9648L12.4571 17.0192H15.3187L15.3726 16.9648H16.2905L16.3445 16.9103H16.9384L16.9924 16.8558H17.5323L18.0182 16.7469H18.3962L20.5018 16.3656L21.9596 15.9843L23.3634 15.4941L24.7132 14.8404L25.631 14.1868C25.991 13.8963 26.2609 13.4968 26.4409 12.9884V8.24953C25.829 8.79423 25.1271 9.24815 24.3352 9.61128L23.2554 10.047L21.4737 10.5917L18.7201 11.1364L17.4243 11.2454L17.3703 11.2999H16.7764L16.7224 11.3543L14.6708 11.4088L14.6168 11.4633H13.159L13.105 11.4088H11.8092L11.7552 11.3543L10.4054 11.2999L10.3514 11.2454H9.9195L9.86551 11.1909L8.73169 11.082L7.00396 10.7552L5.33023 10.3194L3.81847 9.77469L2.14473 8.90317L1.33486 8.24953ZM1.28087 15.1128V19.7972L1.65881 20.5598C2.05474 20.9956 2.52267 21.3587 3.06259 21.6492L4.14241 22.1939L5.27624 22.6297L7.00396 23.1199L8.29976 23.3922L9.27161 23.5012L9.3256 23.5557H9.70354L9.75753 23.6101H10.1355L10.1895 23.6646L11.3233 23.7191L11.3773 23.7735H12.2411L12.2951 23.828H15.4806L15.5346 23.7735H16.3985L16.4525 23.7191H17.0464L17.1004 23.6646L18.4502 23.5557L20.2859 23.2288L21.7976 22.8475L23.2554 22.3573L24.7132 21.6492L25.577 21.05C25.973 20.7595 26.2609 20.3419 26.4409 19.7972V15.1128C25.829 15.6212 25.1271 16.0569 24.3352 16.4201L21.9056 17.2916L19.746 17.7818L18.3962 17.9452L18.3422 17.9997L16.8844 18.1086L16.8304 18.1631H16.1285L16.0745 18.2176H14.8867L14.8327 18.272H12.943L12.889 18.2176L10.9453 18.1631L10.8913 18.1086H10.3514L10.2974 18.0542H9.86551L9.81152 17.9997L8.6777 17.8908L6.94997 17.5639C5.65418 17.2734 4.48436 16.8921 3.44053 16.4201C2.61266 16.0569 1.89277 15.6212 1.28087 15.1128ZM1.33486 21.9216L1.28087 26.6605L1.65881 27.3686C2.09074 27.877 2.64865 28.2946 3.33254 28.6214C4.05243 29.0208 4.8623 29.3477 5.76216 29.6019L7.70585 30.0921H7.97581L9.27161 30.3644L10.6214 30.4734L10.6754 30.5278H11.2153L11.2693 30.5823H12.0792L12.1332 30.6368H15.6426L15.6966 30.5823H16.5065L16.5605 30.5278H17.1004L17.1544 30.4734L18.5041 30.3644L20.0699 30.0921L21.6357 29.7108L22.9854 29.275L24.4432 28.6214L25.523 27.9133L26.2249 27.1507L26.4409 26.606V21.9216L25.577 22.5752L24.1193 23.3378L22.1216 24.0459L20.6098 24.4272L19.152 24.6995L18.0182 24.8085L17.9642 24.8629H17.5323L17.4783 24.9174L16.2365 24.9719L16.1825 25.0264H15.1027L15.0487 25.0808H12.7271L12.6731 25.0264L10.8913 24.9719L10.8374 24.9174H10.3514L10.2974 24.8629H9.81152L9.75753 24.8085L8.62371 24.6995L6.46405 24.2638L4.79031 23.7735L3.54851 23.2833C2.68464 22.9202 1.94676 22.4663 1.33486 21.9216Z" fill="white" fill-opacity="0.6" stroke="white" stroke-opacity="0.6"/>
<path opacity="0.968627" d="M23.8801 12.0625H24.1501L24.501 12.3076C24.609 12.4166 24.645 12.5981 24.609 12.8523L24.366 13.2064C24.2616 13.3008 24.0997 13.3371 23.8801 13.3153L23.4752 13.0157L23.3672 12.6889C23.4068 12.4202 23.5238 12.2295 23.7181 12.117L23.8801 12.0625Z" fill="white" fill-opacity="0.6" stroke="white" stroke-opacity="0.6"/>
<path opacity="0.968627" d="M21.5044 12.6641C21.7744 12.6822 21.9633 12.7821 22.0713 12.9636L22.1793 13.3449L22.0173 13.7535L21.7204 13.9169H21.3964L20.9915 13.6173L20.9375 13.1271L21.0995 12.8275L21.5044 12.6641Z" fill="white" fill-opacity="0.6" stroke="white" stroke-opacity="0.6"/>
<path opacity="0.968627" d="M18.9121 13.3132C19.2936 13.2733 19.5366 13.3732 19.6409 13.6128L19.6949 14.1031L19.398 14.4571L19.074 14.5661C18.8365 14.5334 18.6655 14.4335 18.5611 14.2665L18.4531 13.8307L18.6151 13.4767L18.9121 13.3132Z" fill="white" fill-opacity="0.6" stroke="white" stroke-opacity="0.6"/>
<path opacity="0.968627" d="M23.8801 18.8676C24.1789 18.8604 24.3858 18.9421 24.501 19.1127C24.609 19.2217 24.645 19.4033 24.609 19.6575L24.366 20.0115C24.2688 20.1132 24.1069 20.1495 23.8801 20.1204L23.4752 19.8209L23.3672 19.494C23.3996 19.2544 23.4986 19.0819 23.6641 18.9766L23.8801 18.8676Z" fill="white" fill-opacity="0.6" stroke="white" stroke-opacity="0.6"/>
<path opacity="0.968627" d="M21.3424 19.5234H21.7744L22.0713 19.7686L22.1793 20.1498L22.1253 20.3677L21.9363 20.6128C21.8176 20.729 21.6196 20.7654 21.3424 20.7218L20.9915 20.4222L20.9375 19.932L21.2345 19.5779L21.3424 19.5234Z" fill="white" fill-opacity="0.6" stroke="white" stroke-opacity="0.6"/>
<path opacity="0.968627" d="M18.9121 20.1207C19.2612 20.0772 19.4862 20.1589 19.5869 20.3659C19.6949 20.4748 19.7309 20.6564 19.6949 20.9106L19.344 21.3191L19.02 21.3736C18.8149 21.33 18.6619 21.2301 18.5611 21.074L18.4531 20.6927L18.5071 20.4748L18.8041 20.1752L18.9121 20.1207Z" fill="white" fill-opacity="0.6" stroke="white" stroke-opacity="0.6"/>
<path opacity="0.968627" d="M23.9341 25.6797C24.2041 25.6797 24.393 25.7614 24.501 25.9248C24.609 26.0337 24.645 26.2153 24.609 26.4695L24.366 26.8236C24.2688 26.9252 24.1069 26.9616 23.8801 26.9325L23.4752 26.6329L23.3672 26.3061C23.3996 26.0664 23.4986 25.8939 23.6641 25.7886L23.9341 25.6797Z" fill="white" fill-opacity="0.6" stroke="white" stroke-opacity="0.6"/>
<path opacity="0.968627" d="M21.3424 26.3349C21.7168 26.2841 21.9597 26.3658 22.0713 26.5801L22.1793 26.9613L22.0713 27.2882L21.9363 27.4243C21.832 27.5551 21.634 27.5914 21.3424 27.5333L20.9915 27.2337L20.9375 26.7979L21.2345 26.3894L21.3424 26.3349Z" fill="white" fill-opacity="0.6" stroke="white" stroke-opacity="0.6"/>
<path opacity="0.968627" d="M18.966 26.9297H19.236L19.5869 27.1748C19.6949 27.2837 19.7309 27.4653 19.6949 27.7195L19.506 28.0191C19.4052 28.1535 19.2252 28.2079 18.966 28.1825L18.5611 27.8829L18.4531 27.5016C18.5071 27.2656 18.6241 27.0931 18.8041 26.9842L18.966 26.9297Z" fill="white" fill-opacity="0.6" stroke="white" stroke-opacity="0.6"/>
</g>
<defs>
<clipPath id="clip0_14681_2247">
<rect width="27.6436" height="31.5927" fill="white" transform="translate(0.0390625 0.296875)"/>
</clipPath>
</defs>
</svg>
