<svg width="29" height="33" viewBox="0 0 29 33" fill="none" xmlns="http://www.w3.org/2000/svg">
<g clip-path="url(#clip0_14681_2986)">
<path opacity="0.968627" d="M13.195 0.828125H15.9486L16.0026 0.882595H16.9744L17.0284 0.937065L18.2162 0.991536L18.2702 1.04601L19.1341 1.10048L20.8078 1.4273H21.0778L22.6435 1.80859C23.7162 2.10636 24.706 2.48765 25.6131 2.95246C26.4337 3.36281 27.1266 3.89843 27.6917 4.55933L28.1777 5.32192L28.3936 6.0845V27.1645C28.1705 28.1377 27.7115 28.873 27.0169 29.3705C26.3654 29.8934 25.6275 30.3292 24.8032 30.6778L23.1835 31.277L21.0778 31.8217H20.8078L19.1341 32.1485L17.7303 32.2574L17.6763 32.3119H17.0284L16.9744 32.3664H16.0026L15.9486 32.4209H13.195L13.141 32.3664H12.1692L12.1152 32.3119H11.4673L11.4133 32.2574H10.9274L10.8734 32.203L9.6316 32.094L7.57992 31.7127L5.96018 31.277C4.93794 30.9647 4.00209 30.5652 3.15262 30.0786C2.49033 29.7119 1.92341 29.2489 1.45189 28.6896C1.09195 28.3084 0.857983 27.8 0.75 27.1645V6.0845L0.857983 5.59427L1.07395 5.10404C1.3583 4.62833 1.70925 4.2198 2.12678 3.87846L3.74653 2.84352L5.15031 2.24435L6.50009 1.80859L7.57992 1.53624L9.6316 1.15495L10.8734 1.04601L10.9274 0.991536H11.4133L11.4673 0.937065L13.141 0.882595L13.195 0.828125ZM12.8441 2.08094L12.7901 2.13541H11.9802L11.9262 2.18988H11.3863L11.3323 2.24435L9.98254 2.35329L8.68675 2.62564H8.41679L6.85104 3.00693C5.98717 3.22481 5.1953 3.51532 4.47541 3.87846L2.96365 4.80445C2.49572 5.09496 2.17178 5.53072 1.9918 6.11174V6.71091C2.06379 7.03773 2.20777 7.31008 2.42374 7.52796C2.81967 7.96372 3.3056 8.32686 3.88151 8.61737L5.55524 9.37995L6.90503 9.81571L9.76658 10.4149L11.0084 10.5238L11.0624 10.5783H11.5483L11.6023 10.6328L13.222 10.6872L13.276 10.7417H15.9216L15.9756 10.6872L17.5953 10.6328L17.6493 10.5783H18.1892L18.2432 10.5238L19.4311 10.4149L20.9428 10.1425L22.8325 9.6523L24.1823 9.16207C24.9742 8.83525 25.6941 8.41764 26.342 7.90925C26.7019 7.61875 26.9719 7.2193 27.1518 6.71091V6.11174L26.7739 5.40362L26.018 4.64104L24.7222 3.87846L22.7245 3.11587L21.2668 2.73458L19.2151 2.35329L17.8653 2.24435L17.8113 2.18988H17.2714L17.2174 2.13541H16.4075L16.3535 2.08094H12.8441ZM2.0458 8.78078L1.9918 13.5197C2.06379 13.8465 2.20777 14.1189 2.42374 14.3367C2.81967 14.7725 3.3056 15.1356 3.88151 15.4261L5.12331 16.0253L6.52709 16.5155L7.98486 16.8968L9.38864 17.1692L10.4685 17.2781L10.5225 17.3326H10.9544L11.0084 17.3871H11.4943L11.5483 17.4415L13.114 17.496L13.168 17.5505H16.0296L16.0836 17.496H17.0014L17.0554 17.4415H17.6493L17.7033 17.3871H18.2432L18.7292 17.2781H19.1071L21.2128 16.8968L22.6705 16.5155L24.0743 16.0253L25.4241 15.3717L26.342 14.718C26.7019 14.4275 26.9719 14.0281 27.1518 13.5197V8.78078C26.5399 9.32548 25.838 9.7794 25.0462 10.1425L23.9663 10.5783L22.1846 11.123L19.4311 11.6677L18.1353 11.7766L18.0813 11.8311H17.4874L17.4334 11.8856L15.3817 11.94L15.3277 11.9945H13.8699L13.8159 11.94H12.5201L12.4662 11.8856L11.1164 11.8311L11.0624 11.7766H10.6304L10.5764 11.7222L9.44263 11.6132L7.7149 11.2864L6.04116 10.8506L4.5294 10.3059L2.85567 9.43442L2.0458 8.78078ZM1.9918 15.644V20.3285L2.36974 21.091C2.76568 21.5268 3.23361 21.8899 3.77352 22.1805L4.85335 22.7252L5.98717 23.1609L7.7149 23.6511L9.0107 23.9235L9.98254 24.0324L10.0365 24.0869H10.4145L10.4685 24.1414H10.8464L10.9004 24.1958L12.0342 24.2503L12.0882 24.3048H12.9521L13.0061 24.3593H16.1916L16.2456 24.3048H17.1094L17.1634 24.2503H17.7573L17.8113 24.1958L19.1611 24.0869L20.9968 23.7601L22.5086 23.3788L23.9663 22.8886L25.4241 22.1805L26.288 21.5813C26.6839 21.2908 26.9719 20.8732 27.1518 20.3285V15.644C26.5399 16.1524 25.838 16.5882 25.0462 16.9513L22.6165 17.8228L20.4569 18.3131L19.1071 18.4765L19.0531 18.5309L17.5953 18.6399L17.5413 18.6944H16.8395L16.7855 18.7488H15.5977L15.5437 18.8033H13.654L13.6 18.7488L11.6563 18.6944L11.6023 18.6399H11.0624L11.0084 18.5854H10.5764L10.5225 18.5309L9.38864 18.422L7.66091 18.0952C6.36511 17.8047 5.1953 17.4234 4.15146 16.9513C3.32359 16.5882 2.60371 16.1524 1.9918 15.644ZM2.0458 22.4528L1.9918 27.1917L2.36974 27.8998C2.80168 28.4082 3.35959 28.8258 4.04348 29.1526C4.76337 29.5521 5.57324 29.8789 6.4731 30.1331L8.41679 30.6233H8.68675L9.98254 30.8957L11.3323 31.0046L11.3863 31.0591H11.9262L11.9802 31.1136H12.7901L12.8441 31.168H16.3535L16.4075 31.1136H17.2174L17.2714 31.0591H17.8113L17.8653 31.0046L19.2151 30.8957L20.7808 30.6233L22.3466 30.242L23.6964 29.8063L25.1541 29.1526L26.234 28.4445L26.9359 27.6819L27.1518 27.1372V22.4528L26.288 23.1064L24.8302 23.869L22.8325 24.5771L21.3208 24.9584L19.863 25.2308L18.7292 25.3397L18.6752 25.3942H18.2432L18.1892 25.4487L16.9474 25.5031L16.8935 25.5576H15.8136L15.7596 25.6121H13.438L13.384 25.5576L11.6023 25.5031L11.5483 25.4487H11.0624L11.0084 25.3942H10.5225L10.4685 25.3397L9.33464 25.2308L7.17499 24.795L5.50125 24.3048L4.25945 23.8146C3.39558 23.4514 2.6577 22.9975 2.0458 22.4528Z" fill="white" fill-opacity="0.6" stroke="white" stroke-opacity="0.6"/>
<path opacity="0.968627" d="M24.591 12.5938H24.861L25.2119 12.8389C25.3199 12.9478 25.3559 13.1294 25.3199 13.3836L25.077 13.7376C24.9726 13.832 24.8106 13.8684 24.591 13.8466L24.1861 13.547L24.0781 13.2202C24.1177 12.9514 24.2347 12.7608 24.4291 12.6482L24.591 12.5938Z" fill="white" fill-opacity="0.6" stroke="white" stroke-opacity="0.6"/>
<path opacity="0.968627" d="M22.2153 13.1953C22.4853 13.2135 22.6743 13.3133 22.7823 13.4949L22.8902 13.8762L22.7283 14.2847L22.4313 14.4481H22.1074L21.7024 14.1485L21.6484 13.6583L21.8104 13.3587L22.2153 13.1953Z" fill="white" fill-opacity="0.6" stroke="white" stroke-opacity="0.6"/>
<path opacity="0.968627" d="M19.623 13.8445C20.0045 13.8046 20.2475 13.9044 20.3519 14.1441L20.4059 14.6343L20.1089 14.9884L19.785 15.0973C19.5474 15.0646 19.3764 14.9648 19.272 14.7977L19.1641 14.362L19.326 14.0079L19.623 13.8445Z" fill="white" fill-opacity="0.6" stroke="white" stroke-opacity="0.6"/>
<path opacity="0.968627" d="M24.591 19.3989C24.8898 19.3916 25.0968 19.4733 25.2119 19.644C25.3199 19.7529 25.3559 19.9345 25.3199 20.1887L25.077 20.5428C24.9798 20.6444 24.8178 20.6807 24.591 20.6517L24.1861 20.3521L24.0781 20.0253C24.1105 19.7856 24.2095 19.6131 24.3751 19.5078L24.591 19.3989Z" fill="white" fill-opacity="0.6" stroke="white" stroke-opacity="0.6"/>
<path opacity="0.968627" d="M22.0534 20.0547H22.4853L22.7823 20.2998L22.8902 20.6811L22.8363 20.899L22.6473 21.1441C22.5285 21.2603 22.3305 21.2966 22.0534 21.253L21.7024 20.9534L21.6484 20.4632L21.9454 20.1092L22.0534 20.0547Z" fill="white" fill-opacity="0.6" stroke="white" stroke-opacity="0.6"/>
<path opacity="0.968627" d="M19.623 20.652C19.9721 20.6084 20.1971 20.6901 20.2979 20.8971C20.4059 21.006 20.4419 21.1876 20.4059 21.4418L20.0549 21.8503L19.731 21.9048C19.5258 21.8612 19.3728 21.7614 19.272 21.6052L19.1641 21.2239L19.2181 21.006L19.515 20.7065L19.623 20.652Z" fill="white" fill-opacity="0.6" stroke="white" stroke-opacity="0.6"/>
<path opacity="0.968627" d="M24.645 26.2109C24.915 26.2109 25.104 26.2926 25.2119 26.4561C25.3199 26.565 25.3559 26.7466 25.3199 27.0008L25.077 27.3548C24.9798 27.4565 24.8178 27.4928 24.591 27.4638L24.1861 27.1642L24.0781 26.8373C24.1105 26.5977 24.2095 26.4252 24.3751 26.3199L24.645 26.2109Z" fill="white" fill-opacity="0.6" stroke="white" stroke-opacity="0.6"/>
<path opacity="0.968627" d="M22.0534 26.8662C22.4277 26.8153 22.6707 26.8971 22.7823 27.1113L22.8902 27.4926L22.7823 27.8194L22.6473 27.9556C22.5429 28.0863 22.3449 28.1226 22.0534 28.0645L21.7024 27.7649L21.6484 27.3292L21.9454 26.9207L22.0534 26.8662Z" fill="white" fill-opacity="0.6" stroke="white" stroke-opacity="0.6"/>
<path opacity="0.968627" d="M19.677 27.4609H19.9469L20.2979 27.7061C20.4059 27.815 20.4419 27.9966 20.4059 28.2508L20.2169 28.5503C20.1161 28.6847 19.9361 28.7392 19.677 28.7138L19.272 28.4142L19.1641 28.0329C19.2181 27.7968 19.335 27.6243 19.515 27.5154L19.677 27.4609Z" fill="white" fill-opacity="0.6" stroke="white" stroke-opacity="0.6"/>
</g>
<defs>
<clipPath id="clip0_14681_2986">
<rect width="27.6436" height="31.5927" fill="white" transform="translate(0.75 0.828125)"/>
</clipPath>
</defs>
</svg>
