<svg width="53" height="48" viewBox="0 0 53 48" fill="none" xmlns="http://www.w3.org/2000/svg">
<path d="M22.6997 4.58628C22.6997 3.6792 22.4297 2.79249 21.9238 2.03828C21.4179 1.28407 20.6989 0.696236 19.8577 0.349112C19.0165 0.00198743 18.0908 -0.0888365 17.1978 0.0881259C16.3047 0.265088 15.4844 0.701889 14.8406 1.34329C14.1967 1.98469 13.7583 2.80189 13.5806 3.69154C13.403 4.58119 13.4942 5.50334 13.8426 6.34137C14.1911 7.1794 14.7811 7.89568 15.5382 8.39962C16.2953 8.90357 17.1854 9.17255 18.0959 9.17255C19.3169 9.17255 20.4879 8.68935 21.3513 7.82926C22.2146 6.96917 22.6997 5.80263 22.6997 4.58628Z" fill="white"/>
<path d="M15.9611 25.8876C16.314 26.5129 16.8975 26.9768 17.5878 27.1809C18.2781 27.3849 19.0211 27.3132 19.6593 26.9809C20.8606 26.3709 21.4766 24.8004 20.8997 23.5281C20.6272 22.9291 20.1225 22.0695 19.8732 21.4024C19.267 19.7592 19.2482 17.958 19.8199 16.3026C20.3916 14.6472 21.5189 13.2388 23.0116 12.315C24.5457 11.368 26.3635 10.9842 28.1514 11.2298C29.9392 11.4754 31.5849 12.335 32.8045 13.6604C33.7895 14.7196 34.2343 16.0369 35.872 16.2073C37.297 16.3547 38.4861 15.4464 38.8063 14.0779C38.9957 13.2695 38.7611 12.5926 38.3321 11.9096C36.0284 8.23279 32.4476 5.86965 28.1066 5.46423C27.3171 5.38996 24.0858 5.51293 23.6703 6.2215C23.3416 6.78155 23.0421 7.41099 22.6767 7.88216C21.7441 9.11498 20.3682 9.93976 18.838 10.1832C18.304 10.277 17.534 10.1978 16.9022 10.3768C16.7545 10.4177 16.6247 10.5064 16.5331 10.6288C15.7815 11.6022 15.1443 12.6582 14.6339 13.776C13.3324 16.6882 13.479 20.2214 14.6254 23.1969C14.9651 24.0808 15.4747 25.0098 15.9611 25.8876Z" fill="white"/>
<path d="M7.60347 21.2828C6.22858 20.321 4.58727 20.5645 3.61323 21.95C2.35644 23.7198 1.53659 25.7599 1.22031 27.9048C0.709465 31.3397 1.50344 34.4281 3.60223 37.1698C4.16808 37.9088 5.00035 37.6934 5.7935 37.8151C8.36119 38.2096 9.72386 39.7132 10.7431 41.9582C10.7686 42.0171 10.8066 42.0698 10.8545 42.1127C10.9024 42.1556 10.959 42.1876 11.0205 42.2066C14.8213 43.4679 18.5879 42.6534 21.8571 40.3962C23.21 39.4611 24.3796 38.1743 25.3842 36.8423C27.8125 33.6184 23.3151 30.2521 20.9417 33.5831C19.2821 35.9118 17.0733 37.0676 14.3154 37.0505C9.58209 37.0213 6.06115 32.6712 6.91175 28.0667C7.01685 27.4969 7.22583 26.6093 7.59247 25.9799C8.41252 24.5713 9.10546 23.4658 8.1742 21.8904C8.0264 21.6521 7.83237 21.4455 7.60347 21.2828Z" fill="white"/>
<path d="M27.4469 21.9496C24.6409 22.786 24.7728 26.7635 27.7072 27.253C28.6885 27.4161 29.9327 26.9279 31.0301 26.9437C38.2932 27.0497 41.406 35.4905 36.097 40.3824C35.6742 40.7707 35.1206 41.041 34.6134 41.3563C33.3192 42.1611 31.5239 42.0004 30.8566 43.7499C30.3433 45.0952 30.8554 46.51 32.218 47.126C33.4328 47.6751 34.3384 47.3366 35.6253 46.8752C38.7527 45.7539 41.2226 43.8144 42.8872 40.9534C43.7549 39.4644 44.1692 37.8816 44.3684 36.1711C44.4955 35.0887 43.706 34.7369 43.1402 34.0599C41.6773 32.3104 41.4805 30.3442 42.1356 28.199C42.4692 27.1069 41.7628 26.5639 41.164 25.8188C38.8224 22.9102 35.1572 21.42 31.4261 21.4151C30.0806 21.3985 28.7399 21.5786 27.4469 21.9496Z" fill="white"/>
<path d="M52.0429 30.3556C52.0429 29.4478 51.7727 28.5603 51.2665 27.8055C50.7602 27.0507 50.0406 26.4624 49.1987 26.115C48.3568 25.7676 47.4304 25.6767 46.5367 25.8538C45.6429 26.0309 44.822 26.4681 44.1776 27.11C43.5332 27.7519 43.0944 28.5697 42.9167 29.4601C42.7389 30.3505 42.8301 31.2733 43.1788 32.112C43.5276 32.9507 44.1181 33.6676 44.8758 34.1719C45.6335 34.6763 46.5243 34.9455 47.4355 34.9455C48.6575 34.9455 49.8294 34.4619 50.6935 33.6011C51.5575 32.7403 52.0429 31.5729 52.0429 30.3556Z" fill="white"/>
<path d="M9.70749 43.4144C9.70749 42.5073 9.43748 41.6206 8.93162 40.8664C8.42575 40.1122 7.70675 39.5244 6.86552 39.1772C6.0243 38.8301 5.09864 38.7393 4.2056 38.9163C3.31256 39.0932 2.49225 39.53 1.84841 40.1714C1.20456 40.8128 0.766098 41.63 0.588462 42.5197C0.410825 43.4093 0.501995 44.3315 0.850441 45.1695C1.19889 46.0075 1.78896 46.7238 2.54604 47.2277C3.30312 47.7317 4.19321 48.0007 5.10375 48.0007C6.32473 48.0007 7.49572 47.5175 8.35908 46.6574C9.22245 45.7973 9.70749 44.6308 9.70749 43.4144Z" fill="white"/>
<path d="M5.13597 40.9606C5.59161 41.1175 6.03645 41.0145 6.43453 41.1487C7.01118 41.3334 7.49353 41.7346 7.77985 42.2678C7.9585 42.5913 7.9621 43.0299 8.0892 43.4109C8.09574 43.4319 8.10864 43.4504 8.12613 43.4638C8.1327 43.4693 8.14059 43.4729 8.14901 43.4744C8.15744 43.4758 8.16608 43.475 8.17409 43.472L8.37673 43.3785C8.39298 43.3663 8.40566 43.35 8.41347 43.3313C8.42127 43.3125 8.4239 43.292 8.42109 43.2719C8.41749 42.2103 7.93188 41.3692 6.94508 40.9342C6.51702 40.7461 5.53022 40.4669 5.10815 40.7605C4.98665 40.8452 4.99584 40.9119 5.13573 40.9606" fill="black"/>
<path d="M5.13597 40.9606C5.59161 41.1175 6.03645 41.0145 6.43453 41.1487C7.01118 41.3334 7.49353 41.7346 7.77985 42.2678C7.9585 42.5913 7.9621 43.0299 8.0892 43.4109C8.09574 43.4319 8.10864 43.4504 8.12613 43.4638C8.1327 43.4693 8.14059 43.4729 8.14901 43.4744C8.15744 43.4758 8.16608 43.475 8.17409 43.472L8.37673 43.3785C8.39298 43.3663 8.40566 43.35 8.41347 43.3313C8.42127 43.3125 8.4239 43.292 8.42109 43.2719C8.41749 42.2103 7.93188 41.3692 6.94508 40.9342C6.51702 40.7461 5.53022 40.4669 5.10815 40.7605C4.98665 40.8452 4.99584 40.9119 5.13573 40.9606" stroke="black" stroke-width="0.25"/>
<path d="M45.1823 29.3004L45.015 29.2093L45.0842 29.178L45.0857 29.1773L45.0917 29.1746L45.2121 29.1202L45.079 29.1745L45.079 29.1745L45.0774 29.1751L45.1823 29.3004ZM45.0148 29.2094L45.1821 29.301L45.0148 29.2094Z" fill="black" stroke="black"/>
<path d="M18.3791 7.32831C18.3857 7.32746 18.3923 7.3266 18.3989 7.32573L18.3934 7.43924L18.3791 7.32831ZM18.3791 7.32831C17.999 7.37743 18.0181 7.64463 18.3827 7.6626M18.3791 7.32831L18.3934 7.4396L18.3827 7.6626M18.3827 7.6626C18.3959 7.66324 18.4091 7.66381 18.4223 7.66431L18.3936 7.44113L18.3827 7.6626ZM18.4225 7.66431L18.3936 7.44077L18.3993 7.32568C18.4503 7.31897 18.5004 7.31184 18.5495 7.30429C18.5769 7.35138 18.5984 7.41219 18.6013 7.48821C18.604 7.55986 18.5892 7.61929 18.5676 7.66696C18.5198 7.66704 18.4715 7.66616 18.4225 7.66431ZM20.7968 4.97305C20.7813 4.96624 20.767 4.95886 20.7538 4.95116C20.7552 4.93586 20.7566 4.92048 20.7579 4.905C20.7579 4.90475 20.7579 4.9045 20.7579 4.90425C20.7596 4.88408 20.7612 4.86375 20.7627 4.84326C20.7867 4.51855 21.0745 4.27891 21.1356 4.86483C21.1359 4.86683 21.1361 4.86883 21.1363 4.87085C21.1363 4.87094 21.1363 4.87104 21.1363 4.87114C21.1394 4.90165 21.1413 4.93363 21.1421 4.96686C21.1272 4.97424 21.1105 4.98125 21.092 4.98736C21.0058 5.01581 20.8989 5.01765 20.7968 4.97305Z" fill="black" stroke="black"/>
</svg>
