<svg width="15" height="15" viewBox="0 0 15 15" fill="none" xmlns="http://www.w3.org/2000/svg">
<g clip-path="url(#clip0_14681_2746)">
<path d="M3.44572 1.875C3.68639 1.875 3.92707 1.875 4.17504 1.875C4.17504 2.20824 4.17504 2.54149 4.17504 2.88483C6.58181 2.88483 8.98857 2.88483 11.4683 2.88483C11.4683 2.55159 11.4683 2.21834 11.4683 1.875C11.709 1.875 11.9496 1.875 12.1976 1.875C12.1976 2.20824 12.1976 2.54149 12.1976 2.88483C13.1233 2.88483 14.049 2.88483 15.0027 2.88483C15.0027 5.77295 15.0027 8.66108 15.0027 11.6367C14.077 11.6367 13.1513 11.6367 12.1976 11.6367C12.1976 11.97 12.1976 12.3032 12.1976 12.6465C11.9569 12.6465 11.7162 12.6465 11.4683 12.6465C11.4683 12.3133 11.4683 11.9801 11.4683 11.6367C9.06151 11.6367 6.65474 11.6367 4.17504 11.6367C4.17504 11.97 4.17504 12.3032 4.17504 12.6465C3.93436 12.6465 3.69369 12.6465 3.44572 12.6465C3.44572 12.3133 3.44572 11.9801 3.44572 11.6367C2.52004 11.6367 1.59436 11.6367 0.640625 11.6367C0.640625 8.74859 0.640625 5.86047 0.640625 2.88483C1.5663 2.88483 2.49198 2.88483 3.44572 2.88483C3.44572 2.55159 3.44572 2.21834 3.44572 1.875ZM1.36995 3.61416C1.36995 6.02092 1.36995 8.42769 1.36995 10.9074C5.62808 10.9074 9.8862 10.9074 14.2734 10.9074C14.2734 8.50062 14.2734 6.09386 14.2734 3.61416C10.0152 3.61416 5.75711 3.61416 1.36995 3.61416Z" fill="#EC5E73"/>
<path d="M7.28906 13.7109C7.64082 13.7109 7.99258 13.7109 8.355 13.7109C8.355 13.9516 8.355 14.1923 8.355 14.4403C8.00324 14.4403 7.65148 14.4403 7.28906 14.4403C7.28906 14.1996 7.28906 13.9589 7.28906 13.7109Z" fill="#EC5E73"/>
<path d="M7.28906 0.078125C7.64082 0.078125 7.99258 0.078125 8.355 0.078125C8.355 0.318802 8.355 0.559479 8.355 0.807449C8.00324 0.807449 7.65148 0.807449 7.28906 0.807449C7.28906 0.566772 7.28906 0.326095 7.28906 0.078125Z" fill="#EC5E73"/>
<path d="M9.33594 13.7109C9.67844 13.7109 10.0209 13.7109 10.3738 13.7109C10.3738 13.9516 10.3738 14.1923 10.3738 14.4403C10.0313 14.4403 9.68882 14.4403 9.33594 14.4403C9.33594 14.1996 9.33594 13.9589 9.33594 13.7109Z" fill="#EC5E73"/>
<path d="M5.26562 13.7109C5.60813 13.7109 5.95063 13.7109 6.30351 13.7109C6.30351 13.9516 6.30351 14.1923 6.30351 14.4403C5.96101 14.4403 5.61851 14.4403 5.26562 14.4403C5.26562 14.1996 5.26562 13.9589 5.26562 13.7109Z" fill="#EC5E73"/>
<path d="M9.33594 0.078125C9.67844 0.078125 10.0209 0.078125 10.3738 0.078125C10.3738 0.318802 10.3738 0.559479 10.3738 0.807449C10.0313 0.807449 9.68882 0.807449 9.33594 0.807449C9.33594 0.566772 9.33594 0.326095 9.33594 0.078125Z" fill="#EC5E73"/>
<path d="M5.26562 0.078125C5.60813 0.078125 5.95063 0.078125 6.30351 0.078125C6.30351 0.318802 6.30351 0.559479 6.30351 0.807449C5.96101 0.807449 5.61851 0.807449 5.26562 0.807449C5.26562 0.566772 5.26562 0.326095 5.26562 0.078125Z" fill="#EC5E73"/>
<path d="M11.4688 9.70312C11.7094 9.70312 11.9501 9.70312 12.1981 9.70312C12.1981 10.0364 12.1981 10.3696 12.1981 10.713C11.9574 10.713 11.7167 10.713 11.4688 10.713C11.4688 10.3797 11.4688 10.0465 11.4688 9.70312Z" fill="#EC5E73"/>
<path d="M3.44531 9.70312C3.68599 9.70312 3.92667 9.70312 4.17464 9.70312C4.17464 10.0364 4.17464 10.3696 4.17464 10.713C3.93396 10.713 3.69328 10.713 3.44531 10.713C3.44531 10.3797 3.44531 10.0465 3.44531 9.70312Z" fill="#EC5E73"/>
<path d="M11.4688 7.73438C11.7094 7.73438 11.9501 7.73438 12.1981 7.73438C12.1981 8.06762 12.1981 8.40086 12.1981 8.74421C11.9574 8.74421 11.7167 8.74421 11.4688 8.74421C11.4688 8.41096 11.4688 8.07772 11.4688 7.73438Z" fill="#EC5E73"/>
<path d="M3.44531 7.73438C3.68599 7.73438 3.92667 7.73438 4.17464 7.73438C4.17464 8.06762 4.17464 8.40086 4.17464 8.74421C3.93396 8.74421 3.69328 8.74421 3.44531 8.74421C3.44531 8.41096 3.44531 8.07772 3.44531 7.73438Z" fill="#EC5E73"/>
<path d="M11.4688 5.77344C11.7094 5.77344 11.9501 5.77344 12.1981 5.77344C12.1981 6.10668 12.1981 6.43993 12.1981 6.78327C11.9574 6.78327 11.7167 6.78327 11.4688 6.78327C11.4688 6.45003 11.4688 6.11678 11.4688 5.77344Z" fill="#EC5E73"/>
<path d="M3.44531 5.77344C3.68599 5.77344 3.92667 5.77344 4.17464 5.77344C4.17464 6.10668 4.17464 6.43993 4.17464 6.78327C3.93396 6.78327 3.69328 6.78327 3.44531 6.78327C3.44531 6.45003 3.44531 6.11678 3.44531 5.77344Z" fill="#EC5E73"/>
<path d="M11.4688 3.83594C11.7094 3.83594 11.9501 3.83594 12.1981 3.83594C12.1981 4.15993 12.1981 4.48391 12.1981 4.81772C11.9574 4.81772 11.7167 4.81772 11.4688 4.81772C11.4688 4.49373 11.4688 4.16974 11.4688 3.83594Z" fill="#EC5E73"/>
<path d="M3.44531 3.83594C3.68599 3.83594 3.92667 3.83594 4.17464 3.83594C4.17464 4.15993 4.17464 4.48391 4.17464 4.81772C3.93396 4.81772 3.69328 4.81772 3.44531 4.81772C3.44531 4.49373 3.44531 4.16974 3.44531 3.83594Z" fill="#EC5E73"/>
<path d="M11.4716 13.6016C11.7123 13.6016 11.9529 13.6016 12.2009 13.6016C12.2009 13.8793 12.2009 14.157 12.2009 14.4431C11.9232 14.4431 11.6455 14.4431 11.3594 14.4431C11.3594 14.2024 11.3594 13.9617 11.3594 13.7138C11.3964 13.7138 11.4334 13.7138 11.4716 13.7138C11.4716 13.6767 11.4716 13.6397 11.4716 13.6016Z" fill="#EC5E73"/>
<path d="M3.44531 13.6016C3.68599 13.6016 3.92667 13.6016 4.17464 13.6016C4.17464 13.6386 4.17464 13.6756 4.17464 13.7138C4.21166 13.7138 4.24869 13.7138 4.28684 13.7138C4.28684 13.9544 4.28684 14.1951 4.28684 14.4431C4.00914 14.4431 3.73143 14.4431 3.44531 14.4431C3.44531 14.1654 3.44531 13.8877 3.44531 13.6016Z" fill="#EC5E73"/>
<path d="M11.3594 0.078125C11.6371 0.078125 11.9148 0.078125 12.2009 0.078125C12.2009 0.355829 12.2009 0.633533 12.2009 0.919652C11.9602 0.919652 11.7195 0.919652 11.4716 0.919652C11.4716 0.882625 11.4716 0.845598 11.4716 0.807449C11.4346 0.807449 11.3975 0.807449 11.3594 0.807449C11.3594 0.566772 11.3594 0.326095 11.3594 0.078125Z" fill="#EC5E73"/>
<path d="M3.44531 0.078125C3.72302 0.078125 4.00072 0.078125 4.28684 0.078125C4.28684 0.318802 4.28684 0.559479 4.28684 0.807449C4.24981 0.807449 4.21279 0.807449 4.17464 0.807449C4.17464 0.844476 4.17464 0.881503 4.17464 0.919652C3.93396 0.919652 3.69328 0.919652 3.44531 0.919652C3.44531 0.641948 3.44531 0.364244 3.44531 0.078125Z" fill="#EC5E73"/>
</g>
<defs>
<clipPath id="clip0_14681_2746">
<rect width="14.3621" height="14.3621" fill="white" transform="translate(0.640625 0.078125)"/>
</clipPath>
</defs>
</svg>
