<svg width="26" height="19" viewBox="0 0 26 19" fill="none" xmlns="http://www.w3.org/2000/svg">
<path d="M23.6315 2.59109C23.3831 2.75818 23.1398 2.9323 22.9017 3.11346C22.6702 3.28998 22.4205 2.99303 22.697 2.78871C23.124 2.47409 23.5413 2.16788 23.9489 1.87007C23.9733 1.85232 24.0019 1.84104 24.0319 1.83731C24.0619 1.83357 24.0924 1.8375 24.1204 1.84872C24.1485 1.85994 24.1732 1.87808 24.1923 1.90145C24.2114 1.92481 24.2242 1.95262 24.2295 1.98226C24.3215 2.49279 24.4103 3.01516 24.4957 3.54936C24.5422 3.84014 24.1944 3.92197 24.1479 3.67133C24.0938 3.38004 24.0452 3.08961 24.0021 2.80004C24.0014 2.79593 23.9994 2.79216 23.9963 2.78933C23.9932 2.78649 23.9893 2.78473 23.9852 2.78432C23.981 2.78391 23.9768 2.78487 23.9732 2.78706C23.9697 2.78925 23.9669 2.79254 23.9654 2.79643C23.5909 3.81715 23.1519 4.81334 22.6485 5.78499C22.0091 7.01963 20.7552 9.31599 19.0128 8.93824C17.4193 8.59239 17.058 6.8359 16.4662 5.58943C16.3308 5.30431 16.0388 4.93119 15.7101 4.94148C15.0076 4.9631 14.2365 6.46227 14.0127 7.00831C13.6617 7.86365 13.4581 8.71797 13.1676 9.71432C12.612 11.6195 12.4311 13.2222 11.6051 14.8382C11.2702 15.4933 10.6034 15.9884 9.83846 15.7522C9.0704 15.5154 8.41036 14.7954 7.98033 14.1176C7.3949 13.1954 7.01431 12.6 6.83858 12.3313C6.41733 11.6859 5.71749 11.1816 4.94737 11.6967C4.75096 11.8282 4.55541 12.0026 4.36072 12.2201C2.98069 13.7595 2.37803 15.7702 1.82757 17.7238C1.7764 17.9049 1.43268 17.8746 1.51176 17.5745C2.06532 15.4779 2.80082 13.1295 4.46255 11.6139C4.52147 11.56 4.61795 11.4917 4.75199 11.4091C5.67356 10.8409 6.49124 11.2505 7.05566 12.0565C7.73689 13.0287 8.2491 14.1485 9.13191 14.9612C9.4627 15.2653 10.0581 15.5772 10.515 15.429C11.3699 15.1521 11.9085 13.2124 12.1096 12.409C12.5008 10.846 12.8709 9.2918 13.3609 7.75506C13.6483 6.8534 13.9961 6.08966 14.5332 5.34034C14.6679 5.15197 14.8283 4.98918 15.0144 4.85194C15.9246 4.18084 16.552 4.88693 16.8864 5.68361C17.1966 6.42315 17.4881 7.27129 18.0055 7.89659C18.3931 8.36543 19.0247 8.67937 19.6429 8.55431C20.4885 8.38345 21.1904 7.49362 21.6178 6.78392C22.4193 5.45133 23.0957 4.05766 23.647 2.60293C23.655 2.58268 23.6498 2.57874 23.6315 2.59109Z" fill="#F5775A" fill-opacity="0.6"/>
<path d="M22.3999 2.38658L22.4004 2.3862C22.8279 2.0712 23.2457 1.76457 23.6539 1.46634L23.655 1.46558C23.7479 1.39805 23.8564 1.35529 23.9701 1.34114C24.0839 1.32698 24.1995 1.34185 24.306 1.38444C24.4126 1.42704 24.5068 1.49601 24.5795 1.5851C24.6523 1.67411 24.7012 1.78025 24.7216 1.89359C24.8142 2.40748 24.9035 2.93308 24.9895 3.47038C25.0492 3.84392 24.8452 4.19128 24.4973 4.29321C24.335 4.34074 24.1423 4.3302 23.9714 4.22777C23.9617 4.22201 23.9523 4.21604 23.9432 4.20989C23.6831 4.82059 23.3995 5.42227 23.0925 6.01492C22.7739 6.63007 22.2752 7.56598 21.6164 8.30017C20.9659 9.0252 20.0462 9.6739 18.9069 9.42688L18.9068 9.42686C17.9175 9.21215 17.3303 8.55287 16.9294 7.84903C16.7309 7.50048 16.5704 7.12826 16.4273 6.78003C16.3941 6.69922 16.362 6.62026 16.3306 6.54303C16.2228 6.27778 16.1233 6.03293 16.0146 5.80394C15.9668 5.70329 15.8919 5.59091 15.8117 5.51284C15.7603 5.46277 15.7287 5.44708 15.7177 5.44251C15.6952 5.44753 15.6262 5.47114 15.5085 5.57372C15.3774 5.68794 15.2351 5.85748 15.093 6.06282C14.8093 6.47256 14.5768 6.9504 14.4753 7.19793L14.4752 7.19811C14.2214 7.8168 14.0506 8.42641 13.8542 9.12732C13.7894 9.3585 13.7218 9.59962 13.6476 9.85427L13.6476 9.85431C13.4725 10.4548 13.3389 11.0097 13.2068 11.5582C13.1305 11.8752 13.0547 12.19 12.9717 12.5101C12.75 13.3658 12.4874 14.2106 12.0503 15.0657L12.0503 15.0658C11.6581 15.8328 10.7844 16.5676 9.69093 16.2299C8.75089 15.94 8.00889 15.096 7.55814 14.3855C6.97226 13.4626 6.59364 12.8702 6.42015 12.605L6.41988 12.6046C6.23891 12.3274 6.0252 12.1256 5.8226 12.0366C5.65211 11.9616 5.46564 11.9516 5.22537 12.1123C5.07082 12.2157 4.90629 12.3603 4.73329 12.5536L4.73301 12.5539C3.44161 13.9944 2.86309 15.8923 2.30883 17.8594L2.30874 17.8597C2.19007 18.2798 1.76557 18.3872 1.48944 18.312C1.32939 18.2684 1.17023 18.1604 1.07674 17.9802C0.983884 17.8012 0.985424 17.6097 1.02827 17.4471L1.02833 17.4469C1.57908 15.3609 2.34175 12.8715 4.1256 11.2445M22.3999 2.38658L9.47033 14.5931C9.07598 14.23 8.75453 13.7892 8.43872 13.2982C8.3318 13.1319 8.22175 12.9534 8.10883 12.7702C7.90322 12.4367 7.68813 12.0878 7.46513 11.7696M22.3999 2.38658C22.2554 2.49336 22.1347 2.64692 22.0915 2.84283C22.0482 3.0395 22.0937 3.23646 22.2052 3.38891C22.323 3.55018 22.493 3.64166 22.6735 3.66235M22.3999 2.38658L22.6735 3.66235M4.1256 11.2445L4.36862 11.5109C4.46678 11.4264 4.56697 11.3497 4.66933 11.2812L4.66936 11.2812C4.67024 11.2806 4.67112 11.28 4.672 11.2794C4.67201 11.2794 4.67202 11.2794 4.67204 11.2794C5.20106 10.9267 5.74854 10.9117 6.225 11.1211C6.63114 11.2996 6.95543 11.6258 7.19163 11.9612L7.46513 11.7696M4.1256 11.2445C4.22035 11.1579 4.34942 11.0699 4.48948 10.9835L4.48959 10.9834C5.06393 10.6294 5.65287 10.5592 6.19814 10.7439C6.72224 10.9214 7.14559 11.3133 7.46513 11.7696M4.1256 11.2445C4.12546 11.2446 4.12532 11.2447 4.12518 11.2449L4.3685 11.511M7.46513 11.7696C7.46516 11.7696 7.46519 11.7696 7.46521 11.7697L7.19166 11.9612M7.19166 11.9612L9.24259 14.8408C8.92616 14.5719 8.63672 14.2189 8.40253 13.8498L8.40246 13.8497C7.8175 12.9282 7.43498 12.3297 7.257 12.0576M7.19166 11.9612C7.21425 11.9933 7.23603 12.0255 7.257 12.0576M7.19166 11.9612L7.05566 12.0565M4.3685 11.511C4.23832 11.6231 4.11172 11.7486 3.98843 11.8864M4.3685 11.511L4.46255 11.6139M4.3685 11.511L4.46255 11.6139M3.98843 11.8864C2.53323 13.5095 1.90452 15.6092 1.36135 17.5348C1.36134 17.5348 1.36134 17.5349 1.36133 17.5349C1.35631 17.5527 1.35131 17.5704 1.34631 17.5882L1.50129 17.6318C1.50129 17.6318 1.5013 17.6317 1.50131 17.6316L1.34639 17.5879C1.35164 17.5693 1.35785 17.552 1.3649 17.5358C1.3649 17.5358 1.36491 17.5358 1.36492 17.5358C1.41039 17.4316 1.49057 17.3767 1.57078 17.3528C2.07419 15.4776 2.74148 13.4341 4.09287 11.9804L3.98815 11.8867C3.98825 11.8866 3.98834 11.8865 3.98843 11.8864ZM3.98843 11.8864L4.09308 11.9802C4.21092 11.8534 4.33396 11.7312 4.46255 11.6139M4.46255 11.6139C4.52147 11.56 4.61795 11.4917 4.75199 11.4091C4.75267 11.4086 4.75336 11.4082 4.75404 11.4078C4.75405 11.4078 4.75406 11.4078 4.75407 11.4078C5.67479 10.8415 6.49167 11.2512 7.05566 12.0565M7.05566 12.0565C7.07691 12.0868 7.098 12.1173 7.11895 12.1479L7.257 12.0576M7.05566 12.0565L7.11914 12.1482L7.25728 12.058C7.25719 12.0579 7.25709 12.0577 7.257 12.0576M9.24266 14.8408L9.47054 14.5933C9.59444 14.7072 9.77414 14.8265 9.95949 14.8995C10.1524 14.9756 10.2872 14.9772 10.3608 14.9534L10.361 14.9533C10.4321 14.9303 10.5488 14.8516 10.6956 14.6545C10.8371 14.4646 10.9729 14.2102 11.0982 13.9189C11.3483 13.3374 11.5254 12.6837 11.6245 12.2876L11.6245 12.2876C11.6761 12.0814 11.7275 11.8749 11.7789 11.6681C12.1152 10.3159 12.4542 8.9527 12.8845 7.60323L9.24266 14.8408ZM9.24266 14.8408C9.4792 15.0418 9.73083 15.1958 9.98574 15.2743L9.98599 15.2744C10.1455 15.3237 10.3081 15.3208 10.4638 15.2709C10.4638 15.2709 10.4638 15.2708 10.4638 15.2708C10.7342 15.1841 10.9837 14.9553 11.1599 14.6106L9.24266 14.8408ZM22.6735 3.66235C22.2402 4.64696 21.7455 5.60154 21.1894 6.52622C20.9882 6.86011 20.7302 7.22287 20.4347 7.51653C20.1347 7.81462 19.8319 8.006 19.5438 8.06421L19.5437 8.06424C19.1527 8.14334 18.6945 7.94534 18.3908 7.57798L18.3907 7.57784C18.0126 7.12091 17.7724 6.53036 17.5125 5.89159C17.4588 5.75962 17.4043 5.62559 17.3475 5.49025L17.3475 5.49008C17.1666 5.05917 16.8746 4.56605 16.4283 4.29149C16.1932 4.14684 15.9141 4.06292 15.603 4.0884C15.2967 4.11349 15.0002 4.24115 14.7176 4.4495L14.7176 4.44955C14.4892 4.618 14.2917 4.81845 14.1265 5.04945C13.5521 5.85101 13.1836 6.66484 12.8845 7.60317L22.6735 3.66235ZM12.5946 12.5304C12.6468 12.3218 12.6986 12.1137 12.7502 11.9063C12.9304 11.1818 13.1088 10.4647 13.2999 9.75292C13.2999 9.75292 13.2999 9.75292 13.2999 9.75291C13.4662 9.13398 13.6421 8.5191 13.8373 7.90695L13.8373 7.9069C13.9321 7.60938 14.033 7.32978 14.145 7.06259C14.145 7.06257 14.145 7.06256 14.145 7.06254C14.3584 6.55308 14.6119 6.08878 14.9396 5.6316L14.9398 5.63122C15.044 5.48552 15.1674 5.36038 15.3111 5.25437L12.5946 12.5304ZM24.6395 3.58004C24.6394 3.57959 24.6393 3.57914 24.6392 3.5787C24.6393 3.57916 24.6394 3.57963 24.6395 3.58009L24.6395 3.58004ZM4.93464 11.7053C4.85831 11.7571 4.78211 11.8154 4.70604 11.8802C4.70594 11.8803 4.70583 11.8804 4.70573 11.8805C4.59043 11.9788 4.47543 12.092 4.36072 12.2201L4.93464 11.7053Z" stroke="#F5775A" stroke-opacity="0.6"/>
</svg>
